<?xml version="1.0" encoding="UTF-8"?>
<svg id="Livello_1" xmlns="http://www.w3.org/2000/svg" version="1.1" viewBox="0 0 2279.39 1206.82">
  <!-- Generator: Adobe Illustrator 30.6.0, SVG Export Plug-In . SVG Version: 2.1.4 Build 109)  -->
  <defs>
    <style>
      .st0 {
        fill: #fff;
        fill-rule: evenodd;
      }
    </style>
  </defs>
  <path class="st0" d="M1112.69,1206.82c-2.76-4.14-4.15-8.3-5.53-12.44,2.76-1.37,5.53-2.76,9.68-4.14,0-2.78,0-5.54,1.37-6.91h15.2c0,2.76,0,5.53,1.39,9.68h-16.59c0,4.14,1.37,8.3,2.76,12.44-2.76,0-5.53,0-8.29,1.37ZM1173.52,1205.45v-12.44c2.76-1.37,6.89-1.37,11.05-1.37v6.9c-4.15,1.39-8.29,4.15-11.05,6.91ZM1090.57,1199.92c-1.37-2.78-1.37-5.54-1.37-8.3,4.15-1.37,8.3-1.37,13.83-1.37-1.37,2.76-2.76,5.53-2.76,8.29-4.15-.01-6.91-.01-9.69,1.39ZM1195.63,1199.92c-2.76-4.15-5.55-6.91-6.91-9.68,2.76-1.39,5.53-2.78,9.68-2.78v-5.53c4.15,0,9.68,0,15.2,1.37v6.91c-2.76,0-5.53,0-6.91,1.37-1.36,1.37-1.36,4.14-1.36,6.9-4.16.01-6.93.01-9.69,1.41ZM1076.75,1191.62c-1.39-2.78-1.39-5.54-1.39-8.3,4.15-1.37,8.3-1.37,13.83-1.37v6.9c-4.15,0-8.3,1.4-12.44,2.78ZM1158.31,1191.62v-11.06c8.31,0,15.23-1.39,15.23,8.29-5.55,0-11.08,1.4-15.23,2.78h0ZM1057.39,1184.71c-2.76-1.37-4.15-2.76-5.53-2.76,0-9.68,8.3-9.68,16.59-11.06,0-6.91,0-13.83,1.37-20.74,2.76-1.37,5.53-2.78,9.68-2.78,5.53,5.54,4.15,19.35,5.53,27.65-9.66,2.78-19.34,5.55-27.64,9.69h0ZM1103.02,1184.71c-5.53-5.54-5.53-8.3-15.2-11.06v-11.06h11.06c0,2.76,1.37,5.54,2.76,8.3,4.15-1.39,8.29-1.39,13.83-1.39-.01,9.68,1.37,11.08-12.45,15.21h0ZM1226.03,1181.95c-6.89-2.78-13.8-5.54-19.35-8.3,0-5.53-4.12-33.18,13.83-24.88,0,1.37,1.39,4.14,2.76,6.9,1.39-5.53,2.76-9.68,4.15-13.81h15.2c1.39-4.15,2.76-6.91,5.55-9.68h11.05c0,2.76,1.39,5.53,2.76,9.68,2.76-6.91,6.91-12.45,11.08-17.98h8.29c-1.36,6.91-1.36,13.81-1.36,20.74,5.53,5.54,12.44,11.06,12.44,19.35-9.68,0-16.59-8.3-26.26-8.3,1.39,2.78,4.15,6.91,6.91,11.06-9.68,0-17.99-1.37-26.26-6.9,1.39,4.14,4.15,9.66,6.91,15.2-11.08,0-27.66-6.9-31.79-16.58-1.73,1.89-2.71,4.34-2.76,6.9,6.89,4.14,11.05,6.91,13.8,13.81-2.57.06-5.03,1.05-6.94,2.78h0ZM1176.28,1180.57c-6.91-2.78-8.31-9.68-6.91-16.59,2.76-1.37,5.53-1.37,8.29-1.37,1.39,1.37,2.76,2.76,5.55,4.14,5.53-2.76,11.05-4.14,16.56-5.53-1.37,16.58-11.05,13.81-23.49,19.35h0ZM1107.17,1177.8v-2.76h2.76v2.76h-2.76ZM1032.51,1176.41v-11.06c5.53-1.37,12.44-2.76,19.35-4.14-1.37-6.91-2.76-13.83-2.76-19.35,4.14,0,8.29,0,13.81,1.37,0,8.3,1.37,16.59,2.78,24.89l-33.18,8.29h0ZM1093.34,1170.9v-2.76h1.37v2.76h-1.37ZM1014.54,1168.13c-1.37-4.15-2.76-6.91-2.76-9.68-6.72,1.45-13.23,3.77-19.35,6.9-1.37-2.76-2.76-4.14-4.15-5.53,6.91-4.15,15.2-8.3,23.5-12.45-2.76-5.53-11.06-13.81-8.3-20.74h11.06c8.3,8.3,8.3,22.13,17.98,26.26-2.76-8.3-8.3-12.44-4.15-20.74h8.3c2.76,6.91,5.53,15.2,8.29,23.5-6.91,6.93-20.74,12.46-30.41,12.46h0ZM1076.75,1166.73c-1.39-2.76-6.91-12.44,0-12.44v12.44ZM963.4,1163.97c-1.37-2.76-2.76-4.14-4.15-5.53,6.91-6.91,13.83-12.45,20.74-17.98-4.15-8.3-6.91-9.68-6.91-20.75,20.74,0,22.11,6.91,29.03,26.26-8.3,12.48-26.26,15.24-38.7,17.99h0ZM1315.91,1163.97c-11.08-6.91-22.14-12.44-31.81-17.98,2.79-15.2,13.83-33.18,31.81-27.65-2.79,6.91-5.55,15.21-6.91,23.5,5.53,4.14,11.05,9.68,16.56,15.2,0,1.39,0,4.15,1.39,6.91h-11.04s0,.01,0,.01ZM1344.92,1159.83c-9.68-6.91-19.35-12.45-27.64-17.98,0-13.83,8.29-17.98,15.2-27.65,30.43-9.68,15.23,9.68,8.31,23.5,5.53,5.54,12.44,12.45,12.44,20.75-2.76,0-5.53,0-8.31,1.37ZM906.72,1158.46c-2.76-1.39-4.15-2.78-5.53-2.78v-8.3c5.37-5.35,11.41-10,17.96-13.81l-5.53-5.54c-8.29,13.83-24.88,24.89-40.09,27.65-1.37-2.76-1.37-5.53-1.37-8.3,5.74-7.12,12.23-13.61,19.35-19.35-4.15-5.53-13.83-19.35-11.06-24.88,13.83,0,17.98,5.53,26.26,16.58,0-4.14,1.37-8.3,2.76-11.06,15.21,0,24.89,19.35,29.04,31.8-11.06,5.54-22.13,11.06-31.8,17.99h0ZM934.36,1158.46c-1.37-4.15-2.76-6.91-2.76-9.68,5.53-4.15,11.06-8.3,16.59-11.08l-8.3-12.44c-1.37-4.15-1.37-8.3-1.37-12.44,4.15-1.39,8.29-1.39,13.83-1.39,6.91,5.54,23.5,22.13,19.35,31.8-12.44,4.14-24.89,9.68-37.33,15.21ZM1376.73,1158.46c-11.08-9.68-22.11-15.21-27.66-27.65,8.31-11.08,12.44-23.5,29.03-23.5v17.98c13.83-17.98,13.83-15.21,31.79-19.35,0,9.68-6.89,15.2-12.44,23.5,5.55,8.3,11.08,16.59,17.99,24.89-5.55,0-9.68,0-13.83,1.37-11.08-8.3-20.75-16.58-30.43-24.88,0,11.06,12.46,15.2,12.46,26.25-2.78-.01-5.54-.01-6.91,1.39h0ZM1056.01,1157.06c-1.39-4.14-2.76-8.29-2.76-11.06,4.14.01,4.14,6.93,2.76,11.06ZM1434.8,1155.68c-9.68-9.68-19.35-17.98-29.03-26.26,0-11.06,12.44-19.35,19.35-26.25,4.12-1.39,8.29-1.39,12.44-1.39,1.36,2.78,2.76,5.54,4.15,9.68,9.68-6.9,16.56-12.44,27.64-15.2,1.39,1.37,2.76,4.14,4.15,6.91-5.55,6.9-11.08,15.2-16.59,23.5,6.91,5.54,38.7,26.26,9.68,26.26-12.44-8.3-24.88-16.59-35.94-24.89l8.29-12.44c-5.53,2.76-9.68,6.91-13.8,11.06,9.68,6.91,20.73,15.21,20.73,27.65-4.15-.03-8.3-.03-11.06,1.36h0ZM844.5,1152.92v-11.06c5.53-5.54,12.44-9.68,19.35-13.83-5.53-6.91-11.06-13.81-15.2-19.35,0-23.5,45.61,5.54,29.03,27.65l-33.18,16.59h0ZM1259.22,1152.92v-5.54h1.39v5.54h-1.39ZM815.48,1148.78c-4.15,0-4.15-5.54-4.15-8.3,5.82-5.82,12.32-10.93,19.35-15.21-6.91-6.91-20.74-19.35-13.81-29.03,16.59,0,27.64,17.98,37.31,30.41-11.05,9.68-23.5,19.35-38.7,22.13h0ZM1271.66,1143.25c0-4.14,1.39-8.3,2.76-12.44,0,2.76,0,5.53,1.39,8.3l-4.15,4.14ZM772.62,1141.86c-3.09-2.07-6.33-3.92-9.68-5.54v-6.91c8.3-4.14,17.98-8.3,27.65-11.06-5.53-6.91-13.83-16.59-13.83-24.88,16.59-16.59,34.56,20.74,40.09,29.03-13.83,9.69-27.65,16.6-44.24,19.36ZM1015.92,1141.86c-2.76-4.15-5.53-6.91-6.91-9.68h4.15c0,2.76,1.37,5.53,2.76,9.68ZM1296.56,1140.48c0-6.91,1.36-17.98,9.68-17.98,0,1.37,0,2.76,1.36,5.53-4.15,4.15-8.27,8.3-11.04,12.45h0ZM1501.14,1140.48c-11.05-5.54-22.11-9.68-31.79-13.83-1.39-2.76-1.39-4.14-1.39-5.54,5.55-9.68,22.14-40.09,38.7-31.79,0,11.06-2.76,17.98-9.65,24.89v5.53c5.53,1.37,11.05,4.15,17.96,6.91v11.06c-5.53-.01-9.69,1.37-13.84,2.76ZM988.27,1139.1c-2.76-4.15-5.53-8.3-6.91-12.45h4.14c1.39,2.76,4.15,6.91,6.91,11.06-1.36,0-2.75,0-4.14,1.39h0ZM1326.95,1133.57c4.15-8.3,8.29-15.21,17.96-15.21-6.89,4.15-12.44,9.68-17.96,15.21ZM956.48,1132.18c-3.51-2.42-6.75-5.2-9.68-8.3v-5.54c9.68,1.37,11.06,5.54,13.83,12.45-1.39.01-2.78.01-4.15,1.39ZM1361.52,1129.41c4.15-15.2,4.15-11.06,13.83-15.2-5.53,4.15-9.68,9.69-13.83,15.2ZM1385.02,1129.41c2.76-5.53,6.91-11.06,11.08-16.58,1.36,0,2.76,0,4.12,1.37-2.78,6.93-8.27,12.42-15.2,15.2ZM739.45,1128.03c-2.08-1.03-3.95-2.43-5.53-4.14,0-2.78,1.37-5.54,2.76-8.3,6.91-2.76,13.83-4.15,22.11-5.54l-8.29-12.44c-1.39,2.76-2.76,5.54-2.76,8.3-11.06,1.37-26.26,5.53-35.94,1.37v-5.54c4.14-4.14,12.44-4.14,19.35-4.14-4.15-6.91-6.91-12.44-9.68-17.98v11.06c-9.68,0-20.74,4.15-29.03,0v-5.53l12.44-4.15c-1.37-2.76-1.37-5.53-1.37-6.9-9.68-1.39-17.98-2.78-26.26-4.15,2.76-2.76,6.91-5.53,11.06-8.3-13.83-4.14-20.74-11.06-20.74-26.25,13.83,0,15.21,5.53,23.5,13.81,2.76,0,6.91,0,11.06,1.37,0,4.15,1.37,8.3,2.76,12.44,4.15-1.37,8.3-1.37,12.44-1.37,0,2.78,1.37,5.54,2.76,9.68h16.59c2.76,2.78,5.53,5.54,8.29,9.68,17.98-17.98,29.03,19.35,33.18,31.8-11.08,8.29-24.89,12.44-38.71,15.2h0ZM1532.92,1128.03l-29.03-8.3c0-16.58,12.44-27.65,23.5-38.7,2.76,1.37,6.91,2.78,11.08,5.54,1.44-5.42,3.76-10.56,6.89-15.21,2.79-1.37,6.91-1.37,11.08-1.37,0,1.37,1.39,4.15,2.76,6.91,2.76-5.54,5.53-11.06,8.31-15.21,2.76-1.37,6.89-1.37,11.05-1.37,1.39-2.76,2.76-5.53,4.15-6.91h11.05c6.91-9.68,8.31-9.68,16.59-13.81,0,2.76,1.39,5.54,2.76,9.68-4.12,8.3-11.05,9.68-19.35,11.06v5.54c2.79,0,6.91,1.37,11.08,2.76v6.91c-9.68,0-19.35,1.37-29.03,2.76-1.39,1.37-2.76,2.76-2.76,5.54,4.15,0,8.29,1.37,12.44,2.76,0,1.37,0,4.14,1.39,6.91-8.31,0-24.9,0-30.43-5.54-8.29,8.3,2.76,11.06,11.08,15.21-1.39,1.37-1.39,4.14-1.39,6.9-12.02.05-23.87-2.8-34.55-8.3-2.76,1.39-4.15,4.15-5.55,6.91,9.68,4.15,16.59,5.54,16.59,16.59-4.15-.01-6.94,1.36-9.7,2.75h0ZM920.54,1126.64c-2.76-4.14-4.15-8.3-5.53-12.44,4.14,4.15,9.66,8.3,5.53,12.44ZM898.42,1125.27c-4.15-5.54-6.91-11.06-9.68-16.59,2.76,5.53,5.53,11.05,9.68,16.59ZM1441.71,1123.89c4.12-6.91,11.05-23.5,22.11-17.98-2.76,8.29-16.59,15.2-22.11,17.98ZM838.98,1122.51c-6.91-2.78-15.2-12.45-15.2-19.35,2.76,1.37,20.73,13.81,15.2,19.35ZM869.39,1122.51c-4.14-5.54-8.3-11.08-12.44-15.21h5.53c2.76,4.15,11.05,11.06,6.91,15.21ZM804.41,1119.73c-6.91-5.53-20.74-15.2-20.74-23.5h6.91c5.54,5.54,17.98,19.36,13.83,23.5ZM1422.36,1119.73c1.36-4.14,2.76-8.3,5.53-11.06h4.15c-4.15,2.78-6.91,6.93-9.68,11.06ZM1483.17,1118.36c0-9.68,8.29-17.98,13.83-24.88h5.53c.01,8.29-12.43,19.35-19.35,24.88h0ZM768.47,1107.29c-9.68-5.54-16.59-15.21-16.59-26.26,9.68,0,15.2,19.35,16.59,26.26ZM1519.13,1107.29c1.45-6.72,3.76-13.23,6.89-19.35h5.55c-4.15,5.54-8.31,12.44-12.44,19.35ZM991.05,1105.92c-2.76-4.15-5.54-8.3-6.91-12.44,8.3-2.78,17.98-5.54,27.65-8.3l-4.15-24.89,12.44-4.14c8.29,13.81,9.68,26.25,11.06,42.85-13.84,1.37-27.65,4.15-40.09,6.91h0ZM1282.73,1105.92c-9.28-2.58-18.5-5.35-27.66-8.3,1.39-11.06,2.79-53.92,27.66-37.33-2.76,8.3-5.53,16.59-6.91,26.26,8.29,2.76,16.59,5.53,26.26,9.68,0,9.69-12.43,8.3-19.35,9.69h0ZM738.06,1093.48c-4.15-6.91-6.91-12.45-9.68-17.98h5.53c1.39,5.53,2.78,11.06,4.15,17.98ZM962.01,1092.08c-4.15-1.37-8.3-2.76-11.06-4.14v-5.54c9.68-5.53,19.35-9.68,30.41-13.81-4.15-11.06-8.3-22.11-12.44-31.79,5.53-5.54,13.83,0,19.35,2.76,0-5.54,0-9.68,1.37-13.81,2.76-1.39,5.53-1.39,8.3-1.39,0-19.35-15.2-2.76-19.35,1.39-4.15-1.39-8.29-1.39-11.06-1.39v-9.68c6.91-5.53,19.35-22.11,29.03-22.11,0,8.3,16.59,17.98,22.11,24.89,0,2.76,0,6.9,1.39,11.06-4.15,4.14-12.44,5.53-15.21,0-1.37,4.14-1.37,8.3-1.37,13.81-5.53,0-9.68,0-13.83,1.37,4.15,11.08,8.3,23.5,13.83,35.94l-41.46,12.42h0ZM1320.04,1090.71c-11.05-4.14-20.73-8.3-30.4-12.44,2.76-19.35,4.12-49.76,30.4-41.46,0,11.06-6.91,23.5-9.68,33.18,8.31,1.37,31.79,5.54,22.11,19.35-4.12,0-8.27,0-12.44,1.37h0ZM1022.84,1089.33c-2.76-9.68-5.53-17.98-6.91-26.26,6.91,6.9,5.53,16.58,6.91,26.26ZM1263.37,1089.33c1.36-8.3,2.76-16.59,4.15-23.5,2.76-1.37,5.53-1.37,8.29-1.37l-12.44,24.88ZM713.18,1081.03c0-5.53-4.15-4.14,0-12.44v12.44ZM920.54,1079.64c-2.76-4.14-5.53-8.3-8.3-11.06,11.06-5.54,22.13-11.06,34.56-15.21l-12.44-33.18c2.76-1.37,5.53-1.37,9.68-1.37,9.68,5.53,27.65,29.03,22.11,41.46-15.2,6.93-29.04,16.61-45.61,19.36h0ZM1358.75,1078.27c-12.44-5.54-24.88-11.06-35.94-16.59,0-20.74,9.68-44.23,33.19-44.23,0,8.3-8.29,31.79-13.83,34.55,8.31,5.54,17.99,11.06,27.66,16.59,0,1.37,0,2.76,1.36,5.54l-12.45,4.14h0ZM883.22,1071.35c-13.83-13.81,19.35-22.11,24.88-33.18-8.3-4.15-22.11-19.35-22.11-30.41h20.74c11.06,12.44,22.13,26.25,26.26,41.46-13.83,4.14-22.13,13.81-34.56,20.74-5.53,0-11.06,0-15.2,1.39ZM1296.56,1071.35c4.12-16.58,2.76-23.5,16.56-30.41-1.36,11.06-8.29,26.26-16.56,30.41ZM1398.84,1071.35c-14.42-6.63-28.71-13.55-42.87-20.74,0-22.11,17.99-45.63,41.46-45.63,5.55,11.08-12.44,29.03-16.59,38.7,8.31,6.91,17.99,13.83,27.66,20.75-4.15,1.39-6.91,4.15-9.68,6.91h0ZM991.05,1069.97c-5.54-9.68-11.06-19.35-16.59-27.65,1.37-1.37,4.15-1.37,6.91-1.37,2.75,9.68,9.68,19.35,9.68,29.03ZM845.89,1067.2c-1.39-4.15-2.76-8.3-2.76-11.06,9.68-5.54,19.35-13.83,23.5-22.13-6.59-9.11-13.04-18.33-19.35-27.64,27.65,0,31.79,8.29,48.38,31.79-13.83,8.3-26.26,17.98-38.7,27.65-4.15.01-8.3.01-11.06,1.39h0ZM696.58,1065.83v-8.3s5.54,8.3,0,8.3ZM1432.03,1065.83c-12.46-8.3-24.9-16.59-35.94-24.89,2.76-16.59,13.8-27.65,27.64-37.33,5.53-1.37,11.08-1.37,16.59-1.37-1.39,4.15-2.76,8.3-4.15,13.83-5.53,8.29-15.2,13.81-15.2,24.88,8.29,5.54,16.59,11.06,26.26,16.59-1.39,1.37-1.39,2.76-1.39,5.53-5.53,0-9.69,1.4-13.81,2.78h0ZM1466.58,1061.68c-12.44-5.53-22.11-22.11-33.19-24.88,0-9.68,29.03-42.87,41.46-30.41,0,12.44-17.96,17.96-17.96,30.41l20.73,16.58c-1.36,1.39-1.36,4.15-1.36,6.91-4.15,0-6.91,0-9.68,1.39h0ZM812.71,1060.29l-4.15-8.3,20.74-16.58c-5.53-12.45-17.98-15.21-17.98-30.43,17.98-11.06,38.7,19.35,47,29.03-8.3,6.91-16.59,13.83-23.5,22.13-8.29,1.39-15.2,2.78-22.11,4.15ZM681.39,1054.77c-4.15-4.15-8.3-8.3-8.3-13.83,6.91,0,8.3,8.3,8.3,13.83ZM779.54,1054.77c-19.35-9.68,1.37-17.98,9.68-23.5-4.15-5.53-8.3-11.06-12.44-15.2-1.39-5.54-2.76-9.68-2.76-13.83,5.54-1.37,11.06-1.37,16.59-1.37,11.06,11.06,20.74,20.74,26.26,33.18l-37.33,20.73h0ZM1503.9,1054.77c-10.51-7.95-21.1-15.79-31.79-23.5,6.91-12.44,20.75-33.18,38.7-27.65,0,11.06-11.05,19.35-17.96,26.26,0,12.44,26.26,4.14,26.26,22.11-5.18.13-10.32,1.07-15.21,2.78h0ZM955.1,1052c-5.53-9.68-11.06-17.98-15.2-26.25h6.91c6.91,6.9,9.68,17.96,12.44,26.25h-4.15ZM1333.88,1050.62c2.76-9.68,6.91-17.98,11.05-26.26,1.39,0,2.79,0,4.15,1.39-5.53,8.29-11.05,16.59-15.2,24.88ZM1281.34,1049.24c-5.53-5.54-5.53-15.21-1.36-20.74-5.55,0-9.68,1.37-13.83,2.76-1.39-2.76-2.76-5.53-2.76-8.3,6.91-9.68,13.83-17.98,20.73-26.25,12.46,1.37,30.43,13.81,26.26,29.03l-24.88-8.3c-2.76,2.76-4.15,5.53-5.53,8.3,4.12-1.39,8.29-1.39,12.44-1.39,1.36,13.83-1.4,17.98-11.08,24.89ZM757.41,1042.33c-2.76-1.37-4.15-2.76-5.53-2.76l4.14-12.44c-5.53-4.15-9.68-8.3-13.81-12.45,0-4.14,1.37-6.9,2.76-9.68,16.59,0,31.8,12.45,38.71,26.26-9.69,2.76-17.98,6.91-26.28,11.06h0ZM1527.41,1042.33c-8.29-4.14-15.2-8.3-22.11-11.06,0-16.59,31.79-38.7,31.79-17.98l-12.44,12.45,16.59,4.14c0,8.3-6.91,11.06-13.83,12.45h0ZM1367.05,1040.94c2.76-11.06,12.44-30.41,26.26-30.41-8.3,9.68-15.21,23.5-26.26,30.41ZM917.77,1039.57c-8.3-8.3-15.2-16.59-22.11-24.89,15.2,4.15,22.11,6.91,22.11,24.89ZM996.57,1038.18v-4.15h1.37v4.15h-1.37ZM1407.13,1035.42c2.76-11.08,12.44-26.26,24.9-26.26-1.39,8.3-17.99,23.49-24.9,26.26ZM879.07,1034.03c-5.53-2.76-23.5-15.2-23.5-23.5,9.68,0,30.41,16.6,23.5,23.5ZM840.35,1032.64l-22.11-22.11h9.68c5.53,6.91,11.06,13.81,17.98,22.11h-5.54ZM733.91,1031.26c-5.53-4.14-11.06-6.91-15.2-9.68,0-2.76,0-5.53,1.37-6.91,6.91,1.39,15.2,2.78,23.5,4.15v9.68c-4.14,0-6.9,1.39-9.68,2.76h0ZM1447.23,1031.26c5.53-12.44,9.68-16.59,19.35-20.74-6.91,6.93-13.83,13.83-19.35,20.74ZM804.41,1028.5c-9.68-5.54-20.74-12.44-24.88-22.11,1.37-1.39,4.15-1.39,6.91-1.39,2.76,2.76,22.11,19.35,17.96,23.5h0ZM1539.85,1027.13c-1.36-2.78-2.76-5.54-2.76-6.91,9.68-2.76,19.35-4.14,29.03-5.54-4.15,9.68-16.59,11.06-26.26,12.45h0ZM1487.31,1025.74v-5.54c2.79-2.76,11.08-15.21,15.23-11.06-5.53,5.54-11.08,11.06-15.23,16.6ZM764.32,1024.35l-12.44-8.29v-5.54h5.53c2.76,4.14,6.91,8.3,11.06,12.44-1.39,0-2.76,0-4.15,1.39ZM1303.45,1020.2c-4.12-4.14-11.05-6.91-11.05-13.81,6.91,0,12.44,9.68,15.2,13.81h-4.15ZM1013.16,1006.39c-9.68-4.15-11.06-13.83-15.2-22.13-9.68,2.78-19.35,5.54-27.64,9.68-1.39-2.76-2.76-4.14-2.76-5.53,6.91-13.83,20.74-17.98,34.56-23.5,8.3,12.44,17.98,22.13,17.98,37.33-2.8,1.37-5.56,2.76-6.94,4.15h0ZM1266.14,1005c-12.44-12.44,4.15-26.26,12.44-37.31,16.59,0,35.94,13.81,35.94,30.41-11.08,0-19.35-8.3-29.03-12.45-4.15,9.68-11.06,15.2-19.35,19.35h0ZM1306.24,991.18c-4.51-3.36-9.12-6.58-13.83-9.68,0-1.37,0-2.78,1.36-4.15l12.46,8.3v5.53ZM977.22,989.8v-5.54c4.15-2.76,9.68-5.54,15.2-8.3-5.53,4.16-11.06,8.3-15.2,13.84ZM1020.07,982.89c-8.3-5.54-9.68-15.2-12.44-23.5-13.83,0-35.94,16.58-35.94-4.15,16.59-12.44,23.5-11.06,44.24-13.81,6.91,11.06,12.44,22.11,12.44,35.94-2.78,1.36-5.54,2.76-8.3,5.53h0ZM1259.22,977.35c-1.36-1.37-2.76-2.76-2.76-4.14,2.76-12.44,5.53-23.5,8.29-34.55,13.83,2.76,34.58,5.53,45.63,16.58,0,24.89-26.26,1.37-33.16,1.37-4.16,9.68-11.08,17.98-17.99,20.74ZM979.98,962.15c0-12.44,13.83-12.44,23.5-13.81-8.3,4.14-16.59,8.27-23.5,13.81ZM1297.93,959.39c-22.11-6.91-12.44-13.83,4.15-4.15-1.39,1.37-2.75,2.78-4.15,4.15ZM1031.12,956.61c-8.3-4.14-11.06-13.81-12.44-23.5l-37.31,4.14c-1.39-2.76-1.39-5.53-1.39-8.29,15.2-9.68,34.56-12.45,52.53-15.21,1.37,12.44,2.76,24.89,5.53,37.33-2.76,1.4-5.53,2.78-6.91,5.54h0ZM1248.17,949.71c-1.39-11.06-1.39-22.13-1.39-33.19,19.35,1.37,37.31,0,51.14,13.83,0,19.35-27.64,1.37-37.31,1.37-1.71,4.89-2.64,10.02-2.76,15.2-4.15.01-6.91,1.4-9.68,2.79ZM988.27,934.5c-1.37-1.37-1.37-2.76-1.37-2.76,6.91-6.91,20.74-6.91,30.41-8.3-.01,5.54-23.51,11.06-29.04,11.06ZM1284.1,934.5c-4.12-2.76-6.89-4.14-9.68-5.53,0-1.39,0-2.78,1.39-4.15,4.15,1.37,8.29,2.76,13.83,4.15,0,1.37,1.36,2.76,2.76,5.53h-8.3ZM1043.56,931.73c-5.53-5.54-4.14-15.21-5.53-22.11-11.06-1.39-22.11-1.39-31.79-1.39v-11.06c15.2-4.14,31.79-6.9,48.38-9.68v38.7c-4.14,1.39-8.29,2.78-11.06,5.54h0ZM1231.59,928.97c-6.91-6.91-4.15-23.5-4.15-33.19h-5.53c-1.71,4.9-2.64,10.03-2.76,15.21h-9.68c-2.79-11.06-5.55-22.13-6.91-31.8-6.91,0-4.15,12.45-4.15,16.59-2.76,0-5.53,0-8.31,1.37-1.36-4.14-2.76-6.9-4.12-9.68-1.71,1.58-3.12,3.45-4.15,5.54h-8.29c-5.55-9.68-11.08-17.98-15.23-26.26,1.39,6.91,2.76,13.83,5.55,20.74-2.79,0-5.55,1.37-8.31,2.78-4.15-6.91-6.91-13.83-9.68-20.75v16.59c-4.15,0-6.91,0-9.68,1.37-1.37-2.76-2.76-5.53-4.15-6.9-5.53,5.53-8.3,8.29-16.59,8.29-1.39-1.37-2.76-2.76-2.76-4.14,2.76-5.54,5.53-11.06,9.68-16.59-5.53-5.53-11.06-11.06-15.2-16.58,1.37-2.78,2.76-5.54,4.15-6.91,15.2,0,20.74,13.81,23.5,27.65v-27.65c2.76-1.37,5.53-1.37,9.68-1.37l4.14,16.58c6.91-11.06,8.31-12.44,19.35-15.2,0,4.14,0,8.3,1.39,13.81,8.29-4.14,15.2-9.68,24.88-9.68,0,1.37,1.39,2.78,2.76,5.54-2.76,2.76-4.12,5.53-5.53,9.68h37.34c4.12,8.3-1.39,12.44-5.55,16.59,9.68,0,19.35,0,30.43,1.37,0,2.76,0,5.53,1.36,8.3-2.76,1.37-5.53,2.76-8.29,5.53,12.44,0,26.26,2.76,35.94,8.3-2.76,15.21-29.03,6.91-40.1,6.91l-4.12,16.58c-2.78,0-5.54,0-6.9,1.39h0ZM1067.08,911.01c-1.37-1.37-2.78-2.78-2.78-4.15,0-9.68,1.39-19.35,2.78-27.65-9.69,0-16.59-2.76-23.5-9.68,13.83-13.81,33.19-6.9,48.39,5.54-8.3,12.43-12.45,30.4-24.89,35.94h0ZM1261.99,908.23c-4.12-2.76-6.91-4.14-9.68-5.53,5.55,0,12.44,1.37,19.35,2.76-4.14,0-6.91,1.37-9.68,2.76h0ZM1017.3,906.85c-1.38-1.38-2.76-2.76-4.15-4.14l24.88-4.15c.01,4.15-17.95,8.29-20.73,8.29ZM1094.72,895.8c-8.29-8.3,1.39-16.59,5.53-22.11-12.44-5.54-17.96-8.3-17.96-20.74h19.35c4.15,4.14,8.29,8.3,13.83,12.44-5.54,9.68-9.68,19.35-13.83,29.03-2.76,0-5.53,0-6.91,1.39ZM1228.82,888.87c0-4.14,16.56-5.53,16.56,0h-16.56ZM1184.57,887.5c-2.76-6.9-5.53-12.44-8.29-17.98h4.12c1.4,5.54,2.79,11.08,4.16,17.98ZM1064.3,875.06c-4.14-2.76-8.29-4.14-11.06-5.54,0-9.68,16.59-1.37,20.74,0,.01,4.16-6.9,4.16-9.68,5.54ZM1210.83,875.06c-4.15-2.76-8.29-4.14-12.44-5.54h24.88c0,4.16-9.68,5.54-12.44,5.54ZM1097.49,865.38c-4.15-2.76-6.91-4.14-9.68-5.54,4.15,0,8.3,1.39,13.83,2.78-1.4,0-2.78,1.39-4.15,2.76h0ZM1123.74,862.62c-2.76-4.15-5.53-8.3-8.29-11.06h5.53c0,2.76,1.39,6.91,2.76,11.06ZM1179.04,862.62l8.29-8.3c0,1.37,0,2.76,1.39,4.14-4.15,1.39-6.91,2.79-9.68,4.16Z"/>
  <path class="st0" d="M1138.96,1148.78c-33.18-23.5-77.42-49.78-85.7-92.63,0-19.35,4.15-37.33,9.68-55.3-8.3-5.54-12.44-22.13-9.68-31.8,5.54,0,13.83-2.76,17.98,1.39-4.14,0-8.3,0-11.06,1.37,0,34.56,45.63,29.03,62.2,12.44-6.48-1.24-12.93-2.62-19.35-4.14-1.37-2.78-2.76-4.15-2.76-5.54,4.15-1.37,9.68-1.37,15.21-1.37-13.83-4.15-27.65-8.3-40.09-11.06-26.26-8.3-9.68-30.41,6.91-38.7,40.09-8.3,107.8-22.11,140.99,11.06,0,11.06-2.76,20.74-11.05,26.26-12.46,4.14-24.9,8.29-37.34,12.44l4.15,4.14c-13.83,2.78-16.59,6.91-24.88,15.21-17.98,0,4.12-26.26,9.68-29.03-1.39-2.76-1.39-5.53-1.39-8.3,8.29-1.37,51.14-1.37,48.38-20.74-23.5-23.5-111.97-16.59-135.47,2.76-1.37,1.39-1.37,4.15-1.37,6.91l45.61,12.44c19.35,12.44,20.74,16.59,16.59,41.48-5.54,8.3-15.21,13.81-15.21,24.88,13.83,2.78,35.95,5.54,48.39-2.76,0-9.68-11.08-17.98-11.08-24.89,1.39-1.37,2.76-2.76,5.55-2.76,16.56,2.76,31.79,4.15,46.99,0,4.15-4.14,8.31-8.3,13.83-12.44v-9.68c-4.15,0-8.31,0-11.08,1.37,6.91-2.78,13.83-12.44,23.5-2.78-5.53,9.68-9.68,19.36-13.83,29.04,8.31,29.03,11.08,59.44-2.76,87.09-9.68,9.68-19.35,20.74-29.03,31.79-13.83,9.68-27.64,19.35-41.46,30.41-4.14.03-8.29.03-11.05,1.43h0ZM1143.09,1139.1c-20.73-16.59-93.99-62.22-52.53-89.87,4.15,0,26.26-6.91,23.5-9.68-11.06,1.37-20.74,2.76-30.41,4.14v-6.9c-5.53,1.37-11.06,2.76-15.2,4.14,0-31.79,13.83-37.33,47-37.33-4.15,6.91-8.3,13.83-11.06,20.74,16.59,16.59,48.38,11.08,69.13,8.3,5.53-11.06,8.29-16.58,0-29.03,12.44,0,24.88,0,37.31,1.37,2.76,6.91,11.08,22.13,8.31,27.65h-4.15v20.74h-6.91v20.75c-11.08,23.49-42.87,53.9-64.99,64.97h0ZM1141.72,1123.89c-19.35-16.59-47-33.19-49.76-59.44,19.35-19.35,30.41-11.08,53.92-1.39,5.51-4.14,12.43-6.9,19.35-9.68,24.88,0,31.79,5.54,23.5,30.43-13.83,13.8-30.41,31.78-47,40.08h0ZM1141.72,1056.15c-2.76-4.15-5.53-8.3-6.91-11.06,12.44-2.78,24.88-4.15,37.31-5.54.01,5.54-24.88,15.21-30.4,16.6ZM1191.48,993.94c-6.91-2.76-12.44-5.53-17.96-6.9,12.44-2.78,24.88-5.54,38.7-6.91,0,1.37,0,2.76,1.36,4.14-8.26,2.78-15.19,5.54-22.1,9.68h0ZM1083.67,992.56c-5.53-4.14-11.06-8.3-15.2-11.06,11.06,0,23.5,1.37,35.94,2.76-5.54,5.54-12.45,6.91-20.74,8.3Z"/>
  <path class="st0" d="M364.82,1092.08c-34.56-8.29-45.63-42.85-62.22-70.5-2.76-1.37-5.53-1.37-8.29-1.37-80.18,31.79-211.51,70.5-282.01,0-8.29-37.33-15.2-77.42-11.06-116.12,16.59-27.65,38.7-31.79,69.13-31.79,48.38,17.98,40.09,29.03,42.85,78.79,58.05,0,121.64-26.26,171.41-53.92,31.8-29.03,63.59-58.07,98.16-82.95,64.97-31.79,226.7-124.41,302.74-74.64,11.06,23.5,23.5,47,35.94,70.5,0,44.24-67.74,66.35-100.92,80.19-1.37,1.37-1.37,2.76-1.37,4.14,4.15,5.54,8.3,11.06,13.83,16.59,41.48-20.74,84.33-41.48,127.18-62.22-16.59-31.79-33.18-62.2-48.38-92.62-6.91-23.5-12.44-45.63-17.98-67.74l-4.15-111.98c11.06-110.59,80.18-254.36,196.3-287.54,20.74,0,23.5,6.91,37.33,20.74,34.56-4.14,13.81-26.26,19.35-49.76,37.31-37.33,99.53-38.7,147.91-48.38,85.72-1.37,181.08,0,251.59,52.53,0,11.06,0,19.35-5.53,30.41,17.99,17.96,24.88,5.53,45.63-4.15,55.3,0,100.92,64.97,132.71,102.29,19.35,31.79,40.08,67.74,52.54,103.68,5.53,24.88,11.05,49.76,17.96,76.03,0,23.5,0,48.38,1.39,73.27-11.08,67.74-26.26,139.63-64.98,199.07v6.91c41.46,19.35,82.94,38.7,124.41,59.44,5.55,0,12.44-13.83,13.83-19.35-35.94-13.83-102.29-34.56-102.29-81.57,12.44-26.25,23.49-56.68,44.23-77.42,106.44-23.5,235,42.87,322.09,96.77,23.5,15.21,44.23,40.09,64.98,60.83,53.9,29.03,114.73,55.29,178.33,58.07,0-19.35,0-37.33,1.36-55.3,31.79-37.33,91.24-34.56,110.59,13.81l-8.29,99.54c-33.19,49.76-98.16,49.76-154.83,46.99-44.25-8.29-88.48-20.74-131.34-35.94-2.76,0-5.53,1.37-8.29,2.76-16.59,34.56-29.03,66.35-71.89,69.12-12.44-4.14-24.88-6.91-35.94-9.68-27.64-17.98-27.64-35.94-16.59-64.98,0-5.53,0-9.68,1.39-13.81-44.23-11.06-81.57-19.35-128.56-16.59l-45.63,12.45c-4.15,5.53-8.29,12.44-11.08,19.35-58.07,13.81-106.44-15.21-154.83-42.87-23.49-9.68-58.07-33.18-85.69-26.26-27.66,22.11-60.82,48.38-98.16,42.87l-12.44-41.46c-4.15-9.68-20.73-49.78-31.79-55.3,0-38.7,64.98-56.68,94-64.98,49.75-42.85,73.25-114.74,84.33-176.95-1.39-23.5-1.39-47-1.39-69.13-6.91-22.11-12.44-44.24-17.96-64.97-15.23-24.89-29.03-48.38-42.87-71.88-22.11-24.88-49.78-53.92-80.18-69.13-4.15,2.76-8.31,6.91-11.08,11.06-13.8,0-30.4-2.76-30.4-19.36,2.76-4.14,5.53-8.29,9.68-12.44-20.75-20.74-102.32-41.46-128.58-35.94,5.55,12.44,12.46,24.88,19.35,37.31,5.55-1.37,12.46-2.76,19.35-4.14,13.83,6.91,27.66,13.81,41.49,20.74,2.76,4.15,5.53,8.3,9.68,12.44,0-4.15,1.36-6.91,2.76-9.69,16.59,1.39,15.2,6.91,26.26,15.21,1.36-1.37,4.12-2.76,6.91-4.15,8.29,8.3,16.56,16.59,26.24,24.88,8.31,1.37,17.99,4.15,27.66,6.91,0,8.29-8.31,15.2-12.44,23.5-1.39,2.76-1.39,5.54-1.39,9.68,12.44,0,17.96,13.83,20.75,24.88-2.56.05-5.02,1.03-6.91,2.76,4.12,9.68,8.29,20.74,12.44,31.79,12.44,1.37,26.26,4.15,40.1,6.91,31.79,23.5,41.46,64.98,13.8,96.77-12.44,5.53-11.05,19.35-13.8,31.79-4.15,4.15-8.31,8.3-12.46,13.83,4.15,0,9.68,11.06,12.46,15.2-2.57.04-5.03,1.03-6.91,2.78-1.39,2.76-1.39,6.9-1.39,11.06,11.08,11.06,11.08,19.35,8.31,35.94-16.59,16.58-6.91,45.61-5.55,66.34-9.68,0-6.91,24.89-4.12,31.79h-5.55c-2.76-9.68-15.2-35.94-6.91-44.23,1.39,1.37,4.15,2.76,6.91,4.15,0-8.3-8.29-13.83-8.29-19.35h6.91c-1.39-2.78-1.39-4.15-1.39-5.54-2.76-1.37-4.15-1.37-5.53-1.37,0-9.68,5.53-23.5-2.76-31.79-2.76,6.9-5.55,13.81-6.91,20.74-1.39-11.06-1.39-22.13-1.39-33.19h5.55c4.12,8.3,12.44,9.68,19.35,13.83-1.39-4.15-1.39-8.3-1.39-11.06h5.53c-9.68-9.68-8.29-9.68-11.05-23.5l-4.15-8.3c1.39-1.37,2.76-1.37,5.53-1.37v-5.54c-4.12-4.14-8.29-8.3-8.29-13.81h8.29c-8.29-6.91-15.2-12.44-11.05-24.89,1.36-1.37,2.76-2.76,4.12-2.76-6.89-1.37-13.8-6.91-17.96-2.76-6.91-1.37-11.08-9.68-16.59-4.15,1.39,4.15,2.76,8.29,5.53,12.44-2.76-1.39-5.53-1.39-6.91-1.39-1.36,4.15-1.36,8.3-1.36,13.83h-6.91c-1.39,5.53-1.39,11.06-1.39,16.59,1.39-1.39,2.79-1.39,5.55-1.39,0,5.54,1.36,12.45,2.76,19.36,0-4.15,1.36-8.3,2.76-12.45h4.15c4.12,8.3,4.12,22.13,2.76,31.8-13.83,0-22.11-23.5-24.88-33.19-4.15-6.91-8.31-12.44-11.08-17.98,2.76,1.37,5.53,4.15,9.68,6.91,1.39-20.74,4.15-40.09,6.91-59.44,1.36-8.3,2.76-15.21,5.53-22.13-5.53-15.2,4.15-30.41,13.83-40.09,2.76,5.53,5.53,11.06,9.68,16.59,8.29,2.76,17.96,5.54,27.64,8.3,2.79,4.15-1.36,15.2,5.55,15.2,0-4.15,1.36-8.29,2.76-12.44,1.36,0,2.76,0,4.15,1.37-2.79,5.53-4.15,11.06-5.55,17.96,1.39,4.15,2.76,8.3,4.15,13.83-2.76-1.39-4.15-1.39-5.53-1.39,0,1.39,0,2.76,1.36,5.53-5.53,0-9.68,1.37-13.8,2.76,0-5.53-15.23-2.76-17.99-2.76,1.39-2.76,2.76-5.53,4.15-6.91-2.08-1.03-3.95-2.44-5.53-4.15v-26.26c-4.15-4.15-9.7-8.3-16.59-8.3v29.03c4.12,0,1.36,5.53,4.12,11.06-2.76,0-4.12,0-5.53,1.39v15.2l12.44,4.15c1.39,1.37,2.76,4.14,4.15,6.91v-5.53c16.59,0,30.43,1.37,44.23-12.44,11.08,0,19.35-20.74,22.11-29.03,0-27.64-11.05-47-34.55-58.07-16.59-1.39-31.79-2.76-46.99-2.76-1.39-8.3-2.79-16.59-4.15-24.88-5.53-1.37-9.68-1.37-13.83-1.37,4.15-2.76,8.31-5.53,12.44-6.91-1.36-4.15-1.36-8.3-1.36-12.44,1.36-1.37,2.76-2.76,5.53-2.76-4.15-1.37-6.91-1.37-9.68-1.37,0-6.91,1.39-8.3,6.91-11.06h-17.96c1.36-6.91,2.76-13.83,5.53-20.74-2.76-1.37-5.53-2.76-6.91-2.76,4.15-9.68,9.68-8.29,17.96-11.06-5.53-1.39-11.05-2.76-15.2-4.15-2.76,1.37-5.53,2.76-6.91,5.53-1.36-2.76-2.76-4.15-2.76-5.53h-5.53l-5.53-5.53c-1.39-9.68-4.15-20.74-15.23-13.83v6.91h-5.53c-1.39-5.54-2.76-11.06-2.76-15.21-5.53-2.76-9.68-5.53-13.83-6.91-1.36,6.91-2.76,13.83-4.15,20.74-8.29-9.68-16.56-19.35-23.49-29.03-8.31,0-15.23-4.15-17.99-11.06-2.76,1.39-4.12,2.76-5.53,4.15-4.15-4.15-8.31-8.29-11.08-12.44l8.31,20.74c0,4.14,0,8.29,1.36,13.81-1.36-4.14-2.76-6.91-4.12-9.68-2.79,0-5.55,0-8.31,1.39,0-9.69-13.83-15.21-19.35-19.36-4.15-9.68-8.29-19.35-11.05-29.03-16.6-11.06-38.71-13.81-55.3-24.88v-5.53c6.91,1.37,13.83,4.15,20.74,6.91,26.26-2.76,49.76-2.76,76.04,1.37,31.79,9.68,63.58,20.74,96.77,31.79,11.05-26.26,26.26-52.53,31.79-78.79-66.34-66.35-225.34-51.15-308.28-38.7-24.88,9.68-49.76,19.35-73.27,30.41l-4.15,16.59c8.29,20.74,20.74,52.53,35.94,67.74,5.53-2.76,87.09-42.85,76.03-19.35l-70.5,24.88v8.29c22.13,16.59-8.29,31.8-23.5,31.8l-12.44-20.74c-76.03,37.33-134.09,138.24-143.77,219.8,0,30.41-1.37,60.82,4.15,89.87,5.53,16.58,11.06,33.18,17.98,51.14,0-5.54,5.53-8.3,11.06-9.68l8.29-20.74c4.15,1.37,8.3,2.76,13.83,4.14,8.2-6.77,16.99-12.78,26.26-17.98-1.39-16.59-1.39-33.18-1.39-49.76,11.06-17.98,15.21-38.7,24.89-58.07-1.39-8.29-2.76-16.59-4.15-23.5,13.83-6.91,16.59-16.59,17.98-31.8,9.68-16.59,19.35-26.26,22.13-45.61,8.29-4.15,8.29-9.68,9.68-16.59,6.91-5.53,13.81-11.06,22.11-16.59,0-19.35,22.11-22.11,34.56-24.88,4.15-6.91,8.3-13.83,13.83-20.74,7.42-4.51,15.3-8.22,23.5-11.06l-4.14-20.74c1.37-17.98,9.68-42.85,26.26-53.92,0,1.39,1.37,2.76,2.76,4.15-15.21,24.88-38.7,51.14-6.91,71.88,2.76-1.37,5.53-2.76,8.29-2.76-4.14-2.76-8.29-4.15-12.44-5.53,1.37-2.76,2.76-4.15,4.15-5.54-2.76-1.37-5.53-2.76-6.91-2.76,0-11.06,11.06-11.06,17.96-13.83-2.76-11.06-9.68-1.37-16.59-2.76,1.37-2.76,4.14-4.15,6.91-5.53v-5.53c17.98-17.98,31.8-19.35,59.44-16.59l16.59,12.44c6.91,11.06,13.83,19.35,13.83,33.18-1.39,0-2.79,1.37-4.15,2.76-4.15-12.44-11.08-27.65-24.88-20.74-1.39,4.15-1.39,8.3-1.39,13.83,8.3,0,11.06,4.15,12.44,11.06,8.3,4.14,17.98,9.68,27.65,15.2,0,2.76,0,6.91,1.36,11.06-9.68,9.68-23.5,8.29-37.31,5.53-1.37-4.15-1.37-8.3-1.37-11.06h4.14l4.15,8.3c-1.39-9.68-2.76-17.98-2.76-26.26-5.53-4.15-11.06-6.91-15.2-9.68,0-12.44,0-19.35-6.91-29.03-1.44,16.12-2.82,32.25-4.14,48.38-24.89,0-45.63-2.76-66.35,11.06h-12.44v8.3c-5.53,1.37-5.53,6.91-12.44,6.91-1.37,1.37-2.76,2.76-2.76,5.53-23.5,0-26.26,12.44-34.56,29.03-2.76,0-5.53,0-8.3,1.39-1.37,2.76-1.37,5.53-1.37,9.68h-11.06c1.39,4.15,4.15,8.29,6.91,12.44,4.15-4.15,8.3-6.91,13.83-9.68,5.53,1.39,11.06,2.76,17.96,4.15-2.76,0-5.53,0-6.91,1.37,1.37,1.39,2.76,2.76,4.15,5.54-4.15,5.53-8.3,11.06-11.06,17.96,1.37,0,4.14,0,6.91,1.39-4.15,4.14-6.91,9.68-9.68,15.2,1.37,0,2.76,1.39,4.15,2.76-5.53,2.76-9.68,6.91-13.83,11.06v4.15c2.76-1.39,5.53-2.76,9.68-2.76-4.15,6.91-12.44,11.06-17.96,13.83,0-11.06,2.76-16.59,6.91-26.26-1.39-8.29-2.76-15.2-2.76-22.11-15.2,0-23.5,13.83-27.65,23.5h6.91c0,1.37,0,4.14,1.37,6.91h4.15c-2.76,2.76-4.15,5.53-5.53,8.3,1.37,2.76,4.15,5.53,6.91,8.3-1.39,23.5-1.39,47-1.39,70.5-4.15,1.39-6.91,4.15-9.68,6.91,1.39,0,4.15,0,6.91,1.39,16.59-16.59-1.37,9.68,8.3,19.35,2.76-1.37,6.91-1.37,11.06-1.37-2.76,1.37-5.53,4.15-6.91,6.91,2.76-1.37,5.53-1.37,9.68-1.37,0-13.83,4.15-49.76-5.53-59.44-2.76-9.68-5.53-19.35-8.3-27.65,6.91-6.91,13.83-13.83,20.74-19.35-1.72,3.44-2.67,7.22-2.76,11.06l4.15,4.15c-2.76,2.76-4.15,5.53-5.53,8.3,2.76,0,5.53,1.37,8.29,2.76,2.76-1.37,5.53-2.76,8.3-2.76-5.61,2.88-10.73,6.61-15.2,11.06,5.53-1.37,11.06-1.37,16.59-1.37,0,1.37,1.39,2.76,2.76,4.15-6.91,11.06-13.83,22.11-19.35,33.18,2.76,1.37,6.91,2.76,11.06,4.15-2.76,2.76-4.15,6.91-5.53,11.06l12.44-8.3-4.15-8.3c1.37-4.15,2.76-6.91,4.15-9.68,2.76,1.37,6.91,2.76,11.06,4.15-1.12-3.33-2.51-6.57-4.15-9.68,2.76,1.37,6.91,2.76,11.06,4.15-1.37-1.37-1.37-2.76-1.37-4.15l4.15-4.15c5.53,0,11.06,0,16.59,1.37v4.15c-6.91,0-26.26,26.26-33.18,30.41,0,15.2,1.39,30.41,2.76,46.99,2.76,0,5.53,0,8.3,1.39,0,15.2,2.76,30.41,15.2,35.94v13.81c9.68,0,16.59,12.44,20.74,17.98,5.53,0,12.44,1.37,19.35,2.76,0,4.15,17.98,5.54,22.13,15.21,4.15,0,9.68,1.37,15.2,2.76,17.98-6.91,30.41-11.06,44.24-29.03-1.39,16.59-1.39,33.18-1.39,51.14-2.76-5.53-5.51-11.06-8.29-16.58,0,9.68,9.69,37.31,6.93,42.85-2.53-7.46-5.3-14.83-8.3-22.11l-8.3-4.15c-1.37,4.15-1.37,8.3-1.37,13.81-1.39-1.36-2.76-2.76-4.15-2.76,0,8.3-8.3,30.41-4.15,34.56-8.29,1.37-16.59,2.76-23.5,4.14,5.54,0,11.06,1.39,17.98,2.78-8.3,1.37-16.59,2.76-23.5,4.14-1.37-2.76-1.37-5.53-1.37-6.91-1.37,2.78-2.76,5.54-2.76,9.68-1.37,0-2.76,0-4.14,1.39,0-8.3,0-15.21,1.37-22.13-2.76,6.91-5.53,15.21-6.91,23.5-2.76,0-4.14,0-5.53,1.37,1.39-8.3,2.76-16.59,5.53-24.89-2.76-1.37-5.53-1.37-8.29-1.37-2.76,6.91-5.53,15.21-8.3,23.5,2.78,1.37,5.54,2.76,8.3,5.53-5.53,1.37-11.06,2.76-16.59,5.54-1.39-2.78-2.76-4.15-2.76-5.54-1.37,1.37-2.76,4.15-4.14,6.91v-19.35c4.14-5.54,8.29-11.08,13.81-16.59-5.53,1.37-9.68,4.14-13.81,6.91,0-4.15,9.68-15.21,4.14-9.68-1.37-2.78-1.37-5.54-1.37-8.3h-13.82c-4.15,22.11,11.06,35.94-15.2,48.38,1.37-9.68,4.15-17.98,6.91-26.26-8.3,5.54-27.65,24.89-38.7,29.03,0-5.53,4.14-9.68,0-13.81-4.15,1.37-6.91,2.76-9.68,4.14l4.14-8.3c-5.53,1.39-11.06,2.78-15.2,5.54-11.06-5.54-22.13-9.68-31.8-13.81,0-8.31,6.91-13.83,11.06-20.75-5.53,8.3-13.83,16.59-23.5,16.59,2.76-5.54,5.54-9.68,8.3-13.83-6.91,2.78-12.44,6.91-17.98,11.08,0-6.91,9.68-11.08,12.44-16.59,6.91-2.76,15.2-5.54,23.5-6.91-1.37,1.37-1.37,2.76-1.37,5.54,4.14,0,8.29,1.37,12.44,2.76-2.76,4.14-5.53,8.3-6.91,13.81,4.42-3.06,9.04-5.83,13.83-8.29,1.37-9.68,4.14-17.98,6.91-26.26,2.76,5.53,9.68,9.68,16.59,5.53,0-4.14-6.91-4.14-9.68-4.14v-9.68c-2.76-2.76-5.53-5.53-8.3-6.9-5.53,6.9-11.06,15.2-16.59,23.5-6.91-1.37-13.83-2.78-20.74-2.78,4.15-8.29,9.68-16.58,15.2-23.5h-8.3l-16.59,20.74v-42.85c-1.37,1.37-2.76,4.14-4.15,6.91-5.54-1.37-9.68-1.37-13.83-1.37,0-9.68,6.91-12.45,15.2-16.59-2.76-1.37-4.15-1.37-5.53-1.37-1.39-5.54-2.76-9.68-2.76-13.83-2.76-1.37-5.53-1.37-6.91-1.37-1.39-2.76-1.39-4.14-1.39-5.53,2.76-1.39,5.54-2.78,8.3-2.78,0-2.76,0-5.53,1.37-6.9,5.54-1.39,12.45-2.78,19.36-2.78-9.68-1.37-17.98-1.37-26.26-1.37,0-4.14,0-8.3,1.37-12.44-6.91,0-12.44,0-17.96,1.37,1.37,1.37,4.14,2.76,6.91,4.14,0,6.91,0,15.21-8.3,17.98,0-4.14,0-8.3,1.39-11.06-4.15-2.76-8.3-4.14-11.06-5.53,1.39,2.76,2.76,5.53,5.53,8.29-4.14,1.39-8.29,2.77-12.44,4.15-1.37,1.37-2.76,2.76-2.76,5.53-5.54-1.37-9.68-1.37-13.83-1.37,0,5.54-6.91,1.37-8.29,1.37-1.39,4.15-1.39,8.3-1.39,13.83,4.15-12.44,31.8-11.06,41.48-1.37,0,4.14,0,8.3,1.37,13.81,1.39,0,4.15,0,6.91,1.37v8.3c1.37,1.37,4.15,2.76,6.91,4.15v24.88c-6.91,6.91-1.37,20.74,1.37,29.03-4.14,0-5.53,1.37-2.76,4.14l12.44-12.44c-2.76,4.14-4.14,8.3-5.53,13.81,2.76-1.37,5.53-2.76,9.69-2.76-5.54,4.15-9.69,9.68-13.83,15.21,23.5,8.3,85.7,27.65,85.7,59.44-9.68,15.21-17.96,30.41-26.26,45.63-6.91,17.98-13.83,35.94-19.35,55.3-38.7,2.76-71.88-23.5-99.53-45.63-45.61,0-96.77,37.31-132.71,59.44-31.8,8.3-66.35,23.5-100.92,16.59l-16.59-20.74c-55.29-22.13-118.88-11.08-174.18,6.9,4.15,15.21,8.3,30.41,13.83,45.63-15.23,31.87-41.49,38.78-74.67,42.92h0ZM378.64,1085.18c-6.91-17.98-13.83-35.94-19.35-52.54-5.53-11.06-11.06-20.74-16.59-30.41,13.83-1.37,30.41-8.3,42.85-2.76-6.91,1.37-13.83,4.14-20.74,6.91,0,16.58,16.59,4.14,27.65,4.14,8.29,16.59,16.59,29.03,19.35,48.38-6.91,2.76-13.83,5.54-19.35,8.3,0,9.68,12.44,5.53,17.96,4.14-8.29,8.31-20.73,12.48-31.79,13.85h0ZM1890.97,1081.03c-5.53-2.76-11.05-5.53-16.59-6.9,0-6.91,9.68-1.39,13.83-2.78,0-8.3-8.29-13.81-15.2-15.2,0-22.13,8.29-34.56,20.73-52.54,0,6.91,16.59,9.68,20.75,11.06,1.39-4.14,2.76-6.9,4.15-9.68-8.31-2.76-15.23-4.14-22.11-5.53,0-2.76,0-4.15,1.36-5.54,12.44,2.78,26.26,5.54,40.1,8.3-12.44,16.59-17.99,37.33-23.5,56.68-4.15,6.91-6.91,13.81-9.68,22.11h-13.84ZM342.7,1063.05c-8.3-5.53-38.7-38.7-30.41-46.99l12.44,4.14c2.76,5.54,22.13,38.71,17.98,42.85ZM1937.98,1060.29c5.53-15.2,11.05-29.03,17.96-42.85,4.15-1.37,9.68-2.78,15.23-2.78-6.93,15.23-16.6,40.1-33.19,45.63h0ZM100.78,1053.38l-4.15-8.29c2.76-1.39,5.53-1.39,8.3-1.39-1.37-2.76-1.37-5.53-1.37-8.29-5.54-1.39-11.06-2.78-16.59-2.78-1.37-4.14-2.76-6.9-2.76-9.68l4.14-41.46c4.15-1.37,8.3-2.78,12.44-2.78,0-13.81-8.3-9.68-16.59-11.05v-4.15c31.79,0,63.58-8.3,94-13.81,24.88-9.68,51.15-17.98,77.42-26.26-4.15,4.14-6.91,8.3-9.68,12.44-1.37,13.83-2.76,27.65-4.15,42.85,9.68,9.69,12.44,15.21,11.06,30.43-8.29,2.76-16.59,5.53-23.5,8.3,0,2.76,0,5.53,1.37,8.3,6.91-1.39,15.2-2.78,23.5-2.78v4.15c-49.76,16.56-99.53,23.48-153.45,26.24ZM135.34,1049.24c-1.37-4.14-1.37-8.3-1.37-12.44,6.91-1.37,13.81-1.37,20.74-1.37,0,1.37,1.37,4.14,2.76,6.9-8.3,1.37-15.21,4.15-22.13,6.91ZM2142.56,1049.24c-38.7-5.54-77.42-15.21-114.73-24.89-1.39-1.37-1.39-2.76-1.39-4.14,6.91,0,15.23,0,23.5,1.37,0-2.76,1.39-5.53,2.76-6.91l-24.88-8.29v-20.75c15.2-6.91,8.29-40.09,5.53-53.9-5.53-2.76-11.05-6.91-5.53-12.44,56.66,20.74,109.21,34.55,170.02,38.7,0,5.53-13.8,8.29-17.96,8.29v8.3c4.15,0,8.29,0,12.44,1.37,0,17.98,4.15,34.56-1.39,51.15-5.53,1.37-9.68,2.76-13.8,4.14-1.39,2.76-1.39,5.54-1.39,8.3,2.76,0,5.53,1.37,8.31,2.76-12.46,5.54-26.28,5.54-41.5,6.93h0ZM2135.67,1043.7c-9.68-2.76-12.46-5.53-9.68-12.44,6.89,0,13.8,1.37,22.11,2.76-1.39,2.78-2.76,5.54-2.76,8.3-4.15,0-6.91,0-9.68,1.37ZM185.11,1040.94c-1.37-4.14-2.76-6.91-2.76-9.68,6.91-2.76,13.81-4.14,22.11-5.53v9.68c-6.91,1.39-13.83,2.76-19.35,5.53ZM46.88,1039.57l-24.89-20.74c0-4.15,1.37-8.3,2.76-11.06-16.59-8.3-12.44-30.43-11.06-45.63,1.39-1.37,2.76-1.37,5.54-1.37,0-11.06-9.68-12.44-9.68-22.11,8.3,5.53,17.98,11.06,27.65,17.96v16.59c17.96,0,12.44,34.56,11.06,47-2.76,0-5.54,0-6.91,1.37-.01,6.93,9.66,13.84,5.53,17.99h0ZM2091.42,1036.8c-5.53-2.78-11.05-4.15-16.59-5.54,0-2.76,0-5.53,1.39-8.3,6.91,0,13.83,0,20.75,1.37v9.68c-2.79.01-4.16,1.4-5.55,2.79ZM424.26,1034.03c-6.91-17.96-12.44-35.94-17.98-53.9,1.39,5.51,20.74,51.14,17.98,53.9ZM2231.04,1034.03c2.76-6.9,5.53-12.44,8.29-17.96h-8.29v-42.87l12.44-8.3c-1.36-4.14-2.76-6.9-2.76-9.68,8.29-9.68,16.59-20.74,30.43-20.74-4.15,6.91-8.31,13.83-11.08,20.74,2.76,0,5.53,0,9.68,1.37-1.39,15.21,0,35.94-13.83,45.63,0,4.15,0,8.3,1.39,13.83-9.66,5.54-17.98,11.08-26.26,17.98ZM621.94,1011.91c-19.35-19.35-34.56-51.14-42.85-77.42h6.91c12.44,24.89,26.26,51.14,40.09,77.42h-4.15ZM1655.97,1011.91c11.08-24.88,23.5-49.76,35.94-74.65,2.76-1.37,5.53-1.37,8.29-1.37-6.89,15.2-26.25,67.73-44.23,76.03ZM660.64,1010.53c-5.53-5.54-4.15-13.81-13.83-13.81l-4.14-16.59c-12.45-13.83-29.04-27.65-24.89-48.38-2.76-1.37-4.15-2.76-5.53-2.76,30.45-16.49,61.33-32.17,92.62-47,17.98,19.35,35.94,38.7,53.92,59.44-1.37,5.53-2.76,11.06-2.76,17.98l6.91,6.9c-30.41,16.59-67.74,40.09-102.31,44.23ZM1607.58,1010.53c-30.4-8.3-62.22-30.41-89.85-44.24,1.9-1.72,4.35-2.71,6.91-2.76,0-4.14,0-8.3,1.36-12.44-11.05,0,4.15-22.11,4.15-22.11,13.83-15.21,27.66-30.43,41.46-44.24,11.08,0,17.99,5.54,27.66,11.06-2.76-1.37-5.55-1.37-6.91-1.37-2.76,1.37-4.15,4.14-5.53,6.91,5.53,1.37,15.2,8.3,20.73,5.53v-5.53c19.35,8.3,38.7,16.58,58.07,26.25-6.91,11.08-2.76,12.45-4.12,24.89-8.57,8.57-16.43,17.82-23.5,27.65-1.39,5.53-1.39,11.06-1.39,16.59-4.15,0-8.29,1.37-12.44,2.76-1.39,2.76-1.39,5.53-1.39,9.68-5.54,0-11.06,0-15.21,1.37h0ZM302.6,1002.24c-2.45-4.78-5.22-9.4-8.29-13.81,4.15,2.76,9.68,5.53,15.2,9.68-2.75,1.37-5.53,2.75-6.91,4.14ZM1597.9,999.48c-5.53-2.76-11.05-5.54-16.59-6.91,1.39-4.14,2.76-6.91,4.15-9.68,5.53,1.37,11.08,4.15,17.96,6.91-2.76,2.76-4.14,5.53-5.53,9.68ZM1971.16,999.48c0-6.91,8.29-11.06,12.44-13.83-1.39,2.78-1.39,6.91-1.39,11.08-3.84.08-7.62,1.02-11.05,2.75h0ZM681.39,998.09c-1.39-2.78-2.76-5.54-4.15-6.91,5.54-5.54,12.44-6.91,20.74-8.3v8.3c-5.54,1.39-11.08,4.15-16.59,6.91ZM421.49,993.94l-4.15-8.3h5.54c0,1.39,1.37,2.78,2.76,5.54-1.39,0-2.76,1.39-4.15,2.76ZM330.25,992.56c-19.35-4.14-40.09-22.11-51.14-38.7,0-40.09,24.88-64.98,51.14-91.23h5.54c15.2,38.7,87.09-11.06,103.68,23.5-30.41,5.54-52.53,17.98-77.42,34.56-1.37,5.53-1.37,12.44-1.37,19.35,5.53,15.2,11.06,30.41,17.98,45.61-16.6,1.37-33.19,4.14-48.4,6.9h0ZM1856.42,992.56v-6.91c1.39,0,2.76,1.39,5.53,2.78-2.08,1.03-3.95,2.43-5.53,4.14ZM1932.46,991.18c-9.68-2.76-19.38-5.54-29.05-6.91,0-16.58,11.08-35.94,16.59-51.14,0-30.41-53.9-44.24-76.02-51.14,19.35-19.35,63.58-2.78,89.85-8.3,5.53-5.54,11.08-9.68,16.59-13.83,22.11,26.26,56.66,58.07,48.38,96.77-17.96,22.1-38.7,31.79-66.34,34.55h0ZM458.82,985.64c-8.3-8.3-6.91-19.35-1.37-30.41-9.68-19.35-37.33-22.11-56.68-27.65-5.53-2.76-9.68-5.53-13.83-8.29v-6.91c53.92-26.26,134.09-38.7,193.53-24.89,0,1.37,0,4.15,1.37,6.91h-8.29v8.3c4.15,0,8.29,1.37,13.83,2.76,0,2.76,0,5.54,1.37,9.68-42.85,0-16.59,45.63-9.68,66.35-35.94-11.04-84.33-5.53-120.27,4.15h0ZM1336.64,985.64c-8.29-27.64-16.59-62.2-34.55-84.32,0-11.06,23.49-16.59,30.4-19.35,12.44,33.18,16.59,67.74,19.35,102.29-5.53,0-11.05,0-15.2,1.37h0ZM931.61,982.89c-9.69-31.79,8.29-74.65,15.2-106.44,9.68,4.15,20.74,8.3,31.8,12.44,0,11.08-9.68,22.13-15.2,33.19-6.91,19.35-12.44,38.7-17.98,59.44-5.54-.01-9.69-.01-13.83,1.37ZM1813.55,982.89c-9.68-2.76-17.96-5.54-26.24-6.91-27.66,0-55.3-1.37-82.95,4.15v-9.68c11.08-23.5,17.99-51.14-12.44-58.07,0-8.3,6.91-9.68,15.2-11.06-1.36-2.78-1.36-5.54-1.36-8.3h-5.55c0-2.76,0-5.54,1.39-6.91,66.34-8.3,135.47-2.76,194.92,26.26-5.55,2.76-9.68,6.91-13.83,11.06-22.11,6.91-46.99,9.68-59.45,29.03,0,8.3,1.39,17.98,2.79,27.65-4.16.01-8.33,1.39-12.48,2.78h0ZM1556.44,981.5c-9.68-4.15-9.68-8.3-12.44-13.81,5.53,0,12.44,1.36,19.35,2.76-1.39,2.76-1.39,5.53-1.39,9.68-2.76,0-4.14,0-5.53,1.37h0ZM124.28,980.12c0-4.15,0-8.3,1.37-12.44,5.53-1.39,11.06-1.39,17.98-1.39,0,2.76,0,5.54,1.37,8.3-6.9,1.36-13.81,2.75-20.73,5.53h0ZM388.32,980.12c-4.14-9.68-8.29-19.35-11.06-29.03,17.98,6.91,26.28,13.81,11.06,29.03ZM415.97,980.12c-5.53-24.89-22.11-31.79-44.24-42.87v-11.06c20.74,12.45,70.5,27.65,44.24,53.93ZM720.08,980.12c-1.37-4.15-1.37-8.3-1.37-11.08,4.15-2.76,9.68-4.14,15.2-5.53,0,2.76,0,5.53,1.37,8.3-5.51,2.76-11.05,5.53-15.2,8.3h0ZM1864.69,975.96c-8.29-4.14-8.29-9.68-8.29-17.96,16.59-12.45,34.55-23.5,52.54-34.56v11.06l-33.19,20.74c-4.14,6.91-8.27,13.81-11.06,20.73h0ZM1890.97,975.96c-15.2-15.2-2.76-26.25,15.23-26.25-2.79,6.9-9.68,23.49-15.23,26.25ZM468.5,974.59l-4.15-8.3c5.53-1.37,12.44-2.76,19.35-2.76v6.91c-5.53,1.39-11.05,2.76-15.2,4.15ZM2148.11,974.59c-4.15-1.37-6.91-2.76-9.68-4.14v-8.3c5.53,0,11.05,0,17.96,1.37v9.68c-2.76,0-5.53,0-8.29,1.39h0ZM554.2,973.2l-8.3-4.15v-8.29c5.53,0,11.06,1.37,17.98,2.76v8.3c-4.14,0-6.9,0-9.68,1.37h0ZM1372.58,973.2c1.39-5.53,2.76-11.06,5.53-16.59l-12.44-4.14c-1.36-12.44-6.91-24.89-12.44-34.56-2.76-16.58-5.53-33.18-8.31-48.38,4.15-2.76,8.31-4.14,12.46-5.53-4.15,2.76-6.91,5.53-9.68,8.3,0,1.37,1.36,4.14,2.76,6.9,2.76,0,6.91,0,11.05,1.39,0,31.79,27.66,58.07,27.66,85.69-5.53,1.4-11.08,4.16-16.6,6.91h0ZM1806.66,973.2c-3.33-1.12-6.57-2.51-9.68-4.15v-6.9c5.53,0,11.05,0,17.96,1.37,0,1.37,0,2.76,1.39,4.15-4.15,1.37-6.91,2.78-9.68,5.53h0ZM168.52,971.82c-1.39-4.14-2.76-6.91-2.76-9.68,5.53-1.37,12.44-2.76,19.35-4.14v8.29c-5.53,1.39-11.06,2.75-16.59,5.53h0ZM1715.42,971.82c0-4.14,0-6.91,1.36-9.68,5.55-1.37,12.44-1.37,19.35-1.37-1.36,2.76-1.36,5.53-1.36,8.29-6.91-.01-13.84,1.39-19.35,2.76h0ZM508.59,970.45c-2.08-1.04-3.96-2.44-5.54-4.15v-5.53h19.35v8.29c-5.51-.01-9.66-.01-13.81,1.39h0ZM902.57,970.45c-4.15-2.76-6.91-5.54-9.68-6.91,2.76-26.26,13.83-38.7,23.5-60.82,0-9.68,1.37-17.98,2.76-26.26,4.15-1.37,8.3-2.76,12.45-2.76v-5.54c-4.15-2.76-8.3-5.53-11.06-8.3,9.68,0,12.44,2.78,16.59,11.08-8.29,26.25-15.2,52.53-22.11,78.79l-12.44,4.14,8.3,16.59h-8.31,0ZM1759.65,969.05v-11.05c5.53,0,11.08,0,17.96,1.37-1.36,2.76-1.36,5.53-1.36,8.3-5.54.01-11.08.01-16.6,1.37h0ZM2106.64,967.69l-12.46-4.15c0-4.14,0-6.91,1.39-9.68,5.53,0,11.08,1.37,17.96,2.76v9.68c-2.76-.01-5.53-.01-6.89,1.39h0ZM207.22,959.39c-1.37-2.78-2.76-5.54-2.76-8.3,6.91-1.37,13.83-6.91,20.74-4.15v6.91c-6.91,1.39-12.44,2.76-17.98,5.54h0ZM2069.3,956.61c-5.53-2.76-9.68-4.14-13.83-5.53v-9.68c5.55,1.37,12.46,2.76,19.35,5.53-2.76,2.78-4.14,5.54-5.53,9.68h0ZM286.02,955.24c-2.76-2.76-4.15-5.53-5.53-8.3,1.37-5.53,2.76-11.06,5.53-15.2,1.39,0,2.76,1.37,5.53,2.76-1.37,6.91-1.37,13.83-1.37,20.74h-4.15ZM1491.46,955.24c-8.29-4.14-15.2-8.3-22.11-11.06,4.15-4.14,4.15-12.44,4.15-17.98,15.2-15.2,30.4-30.41,46.99-44.23,4.15-2.78,8.31-4.15,13.83-5.54v-9.68l16.59,4.15c0,29.03-27.66,38.7-44.25,58.07-2.75,8.29-8.27,23.5-15.19,26.26h0ZM74.53,953.85c-11.06-2.76-22.13-5.53-31.8-8.3,1.39-2.76,2.76-4.14,4.15-5.53-1.39-6.91-1.39-13.83-1.39-19.35,16.59,8.3,40.09,11.06,56.68,2.76,0,9.68,1.39,19.35,2.76,30.41h-30.4ZM786.45,953.85c-8.3-12.44-15.21-24.88-22.13-37.33-12.44-11.06-24.88-22.11-35.94-33.18-1.37-5.54-1.37-9.68-1.37-13.83,5.53-1.37,12.44-6.9,19.35-4.14-1.37,2.76-1.37,5.54-1.37,8.3,5.54,1.37,11.06,4.14,16.59,6.91,13.81,13.81,29.03,27.64,44.24,41.46,0,4.14,0,9.68,1.39,15.2,1.37,0,4.14,1.39,6.91,2.78-9.7,4.14-19.38,8.29-27.66,13.81h0ZM1991.89,952.47c-1.36-8.3-1.36-15.21-1.36-22.11,1.36,0,2.76,1.37,5.53,2.76,0,4.14,0,8.3,1.36,12.44-2.76,1.37-4.14,4.15-5.53,6.91h0ZM2177.13,949.71c-1.39-11.06-1.39-20.74-1.39-30.41,19.35,4.14,41.46,4.14,59.45-4.15-1.39,5.54-2.76,12.44-4.15,19.35,1.39,0,2.76,0,4.15,1.37,0,13.84-49.78,13.84-58.07,13.84ZM70.38,946.94c-1.39-4.14-2.76-8.29-2.76-12.44h19.35c-1.37,2.76-1.37,6.91-1.37,11.06-5.54,0-11.06,0-15.21,1.37h0ZM1418.21,945.56c0-5.53,0-11.06,1.36-15.2-5.53-1.37-9.68-2.78-13.8-2.78l-20.75-29.03c-4.15-16.58-8.29-33.18-12.44-48.38,33.19-38.7,66.34-81.55,84.33-129.94,4.15-29.03,9.68-58.07,15.2-85.7-1.36-23.5-2.76-45.63-4.15-67.74-4.12-15.2-22.11-81.57-35.93-88.47-13.83-41.48-67.74-84.33-102.32-109.21-1.36-2.76-2.76-5.53-2.76-6.91,22.11-33.18,41.46-80.18,87.09-58.05,44.23,33.18,77.42,71.88,109.21,116.12,8.31,16.59,16.59,33.18,26.26,49.76,5.53,19.35,12.44,38.7,19.35,59.44,6.91,38.7,8.31,76.03,9.68,114.74-8.29,84.33-40.08,164.51-88.45,233.62-24.63,21.85-48.6,44.43-71.88,67.72h0ZM862.48,942.8c-51.15-41.46-87.09-89.85-123.03-145.14-15.2-30.41-23.5-63.59-34.56-95.38-8.3-55.3-9.68-109.21-1.37-164.51,6.91-24.89,13.83-49.76,22.11-74.65,31.8-58.07,92.63-167.26,172.8-167.26,17.98,20.74,35.94,42.85,53.92,64.97-88.48,44.24-134.09,143.77-152.07,235.01,0,63.58,11.06,114.74,41.46,170.03,19.35,27.65,42.85,52.53,64.98,77.42-4.15,16.58-8.3,33.18-11.06,51.14-8.6,10.01-16.46,20.63-23.5,31.79-2.76-1.37-5.53-2.76-8.3-2.76-5.51,5.53.01,12.43-1.36,19.35ZM30.27,941.41c-1.37-17.98-1.37-35.94-1.37-53.92,13.81-13.81,47-8.3,64.98-1.37,4.14,4.15,12.44,17.98,1.37,12.44-1.37,5.54-1.37,11.08-1.37,17.98-12.44,0-23.5,0-34.56,1.37-9.68-4.14-17.98-8.29-26.26-11.06-.01,5.54,2.76,34.56-2.78,34.56h0ZM2192.33,940.04c-1.39-2.78-1.39-5.54-1.39-6.91,6.91-1.37,13.83-2.76,20.75-2.76v9.68h-19.36ZM2247.64,937.26c-1.39-12.44-1.39-23.5-1.39-34.55-9.68,0-16.56,8.3-26.24,11.06-12.46-1.37-23.5-1.37-34.58-1.37v-17.98c-2.76,0-5.53,0-6.91,1.37-12.44-24.88,59.45-20.74,70.5-15.2-.03,16.58,2.76,41.46-1.39,56.66h0ZM1643.53,933.12c-30.43-15.21-13.83-22.11,4.15-9.68-1.64,3.11-3.02,6.35-4.15,9.68ZM635.77,931.73c-1.39-4.15-2.76-6.91-2.76-9.68,5.54-2.76,11.06-5.54,16.59-6.91l5.53,5.54c-6.89,2.85-13.4,6.56-19.35,11.05h0ZM577.7,927.58v-5.53h22.11c-8.29,1.39-15.2,2.76-22.11,5.53ZM1694.67,927.58c-4.15-2.76-8.29-4.14-12.44-5.53h19.35c-2.76,1.39-5.53,2.76-6.91,5.53ZM297.09,924.82c-5.54-9.68,1.37-15.2,5.53-22.11h5.54c-.01,8.3-1.39,19.35-11.06,22.11ZM851.42,922.06l-12.44-16.59c2.76-1.37,5.53-1.37,9.68-1.37,4.15,4.14,9.68,8.3,9.68,15.21-2.56.05-5.02,1.02-6.91,2.75h0ZM1982.21,922.06c-4.15-6.91-15.2-15.21-8.29-22.11,11.05,5.53,9.68,8.29,12.44,17.96l-4.15,4.15h0ZM404.91,920.68c-4.15,0-4.15-6.91-4.15-9.68,6.91-1.37,13.83-2.78,22.13-4.15v6.91c-6.91,1.37-12.45,4.14-17.98,6.91h0ZM1873.01,919.3c-5.53-2.78-11.08-5.54-16.59-6.91,0-2.76,0-5.54,1.39-8.3,6.89,0,27.64,0,20.73,13.81-2.76.01-4.16.01-5.53,1.4h0ZM1440.32,915.15c-1.39-4.14-1.39-6.91-1.39-9.68,5.55-5.53,9.68-13.81,19.35-9.68-.01,13.83-9.69,15.21-17.96,19.35h0ZM674.47,908.23c-1.37-2.76-2.76-5.53-2.76-6.9,5.53-5.54,12.44-5.54,19.35-6.91v6.91c-5.53,1.37-11.05,4.14-16.59,6.9ZM447.76,906.85c-1.39-2.76-2.76-5.53-2.76-8.3,6.91-1.37,13.83-2.76,20.74-2.76,0,2.76,0,5.54,1.37,8.3-6.91,0-13.81,1.39-19.35,2.76h0ZM1828.78,906.85c-5.12-1.2-10.2-2.58-15.23-4.14,0-2.76,0-5.54,1.39-8.3l20.75,4.14c-2.79,2.78-5.55,5.54-6.91,8.3ZM540.38,902.71c-2.76-1.37-5.53-2.76-6.91-2.76v-8.3c5.53,0,12.44,0,19.35,1.37,0,2.76,0,5.53,1.37,8.3-5.51,0-9.66,0-13.81,1.39h0ZM1318.68,902.71c-1.13-3.33-2.52-6.56-4.15-9.68l16.59-8.3c0,2.76,1.36,6.91,2.76,11.06-5.53,1.37-11.08,4.15-15.2,6.91h0ZM1726.46,902.71v-8.3c5.55-5.54,13.83-4.14,20.75-2.76-1.39,2.76-1.39,5.53-1.39,8.3-6.93,0-13.81,1.37-19.36,2.76h0ZM492,901.32c-1.37-2.78-2.76-5.54-4.15-6.91,5.53-5.54,13.83-2.76,22.13-1.37v8.3h-17.98ZM1774.85,901.32c-2.76-1.37-4.12-2.78-5.53-2.78,0-13.81,9.68-8.29,19.35-9.68,0,2.78,1.39,5.54,2.76,8.3l-16.59,4.15ZM62.08,898.56c-4.14-1.37-8.29-1.37-11.06-1.37,0-4.14,0-8.3,1.37-11.06,6.91,0,15.21,0,23.5,1.37v9.68c-5.51,0-9.68,0-13.81,1.39h0ZM959.25,898.56c-4.15-2.76-8.29-5.53-12.44-6.9,0-4.15,0-6.91,1.39-9.68,4.15,1.37,9.68,2.76,15.2,5.53v9.68c-1.39-.01-2.76-.01-4.15,1.37h0ZM319.2,894.41l-4.15-8.3c4.15-5.53,8.3-9.68,12.44-13.81,1.37,0,4.14,1.37,6.91,2.76v8.3c-5.6,2.88-10.73,6.61-15.2,11.05h0ZM1958.7,893.03c-4.12-8.3-8.29-15.21-12.44-22.11,1.39-1.39,2.76-2.78,4.15-2.78,8.29,8.29,20.75,12.45,8.29,24.89h0ZM2206.17,893.03c-1.39-4.15-1.39-8.3-1.39-11.06h24.9c-1.39,2.76-1.39,5.53-1.39,8.3-8.3,0-15.21,1.37-22.13,2.76h0ZM816.86,890.27c-6.91-6.91-8.3-9.68-8.3-19.35h6.91c2.76,5.53,5.53,11.06,9.68,16.58-2.76,0-5.53,1.37-8.29,2.78ZM1295.16,887.49c0-26.25,52.54-38.7,70.5-45.61-22.11,17.96-44.23,34.55-70.5,45.61ZM603.97,886.12c-27.64-4.14-53.92-8.3-80.18-12.44,41.46-23.5,88.47-31.79,135.47-41.46,8.29,0,17.96,0,27.64,1.37v12.44c-20.71,20.73-53.89,31.79-82.93,40.09h0ZM982.75,884.73c-23.5-16.59-47-31.79-70.5-47,22.13,0,64.98,23.5,74.65,44.24-1.39,0-2.78,1.39-4.15,2.76ZM1274.42,884.73c-8.29-6.91-15.2-12.44-22.11-17.98-13.8-5.53-44.23-16.59-23.49-37.33,0,4.15,1.36,9.68,2.76,15.21,1.36-4.15,2.76-8.3,4.12-12.44,5.55,0,4.15,8.29,4.15,12.44,5.53-1.37,11.08-1.37,16.59-1.37-4.15-2.78-8.29-4.15-11.08-5.54,5.55-1.37,11.08-2.76,16.59-2.76,0,1.37,0,2.76,1.39,5.53,0-2.76,0-5.53,1.36-6.9,1.39,2.76,2.79,6.9,4.15,11.06,2.76,0,6.91,0,11.08,1.37,0,1.37,0,2.76,1.36,5.54,2.76-2.78,5.55-5.54,8.31-6.91h-9.68c0-2.76,0-4.15,1.36-5.54,4.15-1.37,8.31-2.76,13.83-2.76-1.39,1.37-2.76,4.14-4.15,6.91h9.68c5.55-5.54,8.31-20.75,9.68-29.04-1.36,11.08-2.76,22.13-4.12,33.19-4.15,5.54-24.9,13.83-17.99,20.74-5.49,5.53-9.64,11.04-13.79,16.58h0ZM1665.64,884.73c-22.11-8.3-58.07-22.11-74.65-38.7v-9.68c1.39-1.37,2.76-2.76,4.15-2.76,47.02,0,123.03,11.06,161.75,40.09-30.43,2.75-60.83,6.91-91.24,11.05ZM476.78,879.19c-6.91-6.9-13.81-12.44-19.35-17.96,8.29,0,16.59,1.37,24.88,2.76,0,2.76,0,6.91,1.37,11.06-2.75,1.37-5.51,2.76-6.9,4.14h0ZM619.18,879.19c-1.37-4.14-2.76-8.29-2.76-12.44,5.53-1.37,12.44-2.76,19.35-4.14,0,2.76,0,5.53,1.37,8.3-6.91,2.76-12.44,5.51-17.96,8.27ZM1474.87,879.19c-1.36-4.14-2.76-8.29-2.76-11.06l12.44-12.44c1.39,2.76,2.76,5.54,4.15,9.68-5.53,4.15-9.68,8.31-13.83,13.83h0ZM1655.97,879.19c-4.78-2.45-9.39-5.22-13.8-8.29,0-12.45,11.05-5.54,20.73-4.15v9.68c-2.57.05-5.03,1.04-6.93,2.76h0ZM1009.01,877.82c2.76-6.9,5.53-12.44,9.68-17.98,0,1.39,0,2.78,1.39,4.15-4.15,4.15-8.3,8.3-11.06,13.83h0ZM1799.75,877.82l-4.15-12.44c8.29-2.76,17.96-5.54,27.64-6.91-8.3,5.54-16.58,12.45-23.49,19.35h0ZM500.3,869.52c1.37-5.53,6.91-16.58,4.15-19.35h-134.09c0-4.14,34.56-19.35,8.3-19.35,0-26.26,135.47-71.88,161.73-81.55,16.59-4.14,33.18-8.3,49.76-11.06,8.3,1.37,16.59,2.76,26.26,4.14,1.37,2.78,4.14,5.54,6.91,8.3,2.76,22.11,9.68,38.7,19.36,58.07-1.39,2.76-1.39,5.53-1.39,9.68-47.02,16.59-94,33.19-141.01,51.14h0ZM1004.86,869.52c0-8.29,6.91-12.44,11.06-19.35,0,6.91-4.15,17.98-11.06,19.35ZM1776.24,868.14c-45.63-22.11-92.62-35.94-139.63-49.76,0-12.44,5.55-19.35,9.68-29.03,6.91-35.94,5.55-45.63,41.46-51.14,29.03,5.53,73.28,12.44,98.16,29.03h-4.15c-1.36,1.37-2.76,4.14-4.15,6.91,4.15,2.76,9.7,5.53,15.23,8.29,1.36-2.76,2.76-5.53,4.15-8.29l66.34,24.88c11.05,8.3,23.5,16.59,35.94,26.26l-8.31,4.14v6.91c6.91,2.76,13.83,5.54,20.75,9.68h-74.65c-20.73,0-41.46,1.37-60.82,2.76-1.71,1.58-3.12,3.45-4.15,5.54,4.16,4.15,6.93,11.06,4.16,13.83h0ZM368.97,865.38c-5.53-2.76-12.44-2.76-8.29-6.91h62.2c-17.98,1.37-35.95,4.15-53.92,6.91ZM1618.66,862.62c-5.55-4.15-11.08-6.91-16.59-9.68,0-2.78,0-5.54,1.36-6.91,5.55,1.37,11.08,2.76,17.99,4.14-1.4,4.15-2.76,8.3-2.76,12.45h0ZM1890.97,862.62c-5.53,0-29.03-1.37-29.03-6.91,19.35,1.37,38.7,2.76,59.45,4.14-11.08,0-20.75,1.4-30.43,2.78ZM659.27,861.24c-1.37-4.15-1.37-8.3-1.37-11.08,5.53-2.76,11.06-4.14,16.59-5.53,1.37,1.37,2.76,2.76,4.15,5.53-6.9,2.85-13.41,6.57-19.36,11.08ZM1244.02,861.24v-2.78c4.15,0,6.91-1.37,6.91,2.78h-6.91ZM1268.9,861.24c0-4.15,1.39-6.91,2.76-9.68,2.76,1.37,6.91,2.76,11.08,4.14v5.54h-13.84,0ZM786.45,858.47c-2.52-6.55-5.29-13.01-8.3-19.35,1.39-1.37,2.76-2.76,4.15-2.76,8.3,5.54,9.68,11.06,12.44,17.98l-8.29,4.14h0ZM1380.87,858.47c-1.36-4.14-2.76-8.3-2.76-11.06,5.55-2.76,9.68-9.68,17.99-5.53v6.9c-5.55,2.79-11.08,5.54-15.23,9.69ZM1238.5,852.94v-1.37h9.68v1.37h-9.68ZM1259.22,852.94v-1.37h2.76v1.37h-2.76ZM1215,848.79c2.76-11.06,5.53-22.11,9.68-33.18,0,11.06-1.4,24.88-9.68,33.18ZM526.56,847.4c-4.15-4.14-4.15-5.53-1.37-11.06,5.53-1.37,11.06-2.76,17.98-4.14,0,2.76,0,5.53,1.37,9.68-6.91,1.39-12.45,2.76-17.98,5.53h0ZM1056.01,847.4c0-2.76-4.15-9.68,1.37-9.68-1.37,2.76-1.37,5.54-1.37,9.68ZM1748.57,847.4c-5.53-2.76-9.68-4.14-13.8-5.53,0-19.36,17.96-8.3,22.11,1.37-2.76,1.39-5.53,2.78-8.31,4.15ZM1205.32,846.03v-13.81c-4.15,4.14-11.08,9.68-16.59,9.68,4.15-26.26,24.88-51.15,6.91-77.42,5.53,0,1.36-15.21,1.36-19.35-1.36,5.53-2.76,11.06-4.12,17.96-1.39-1.37-2.79-2.76-4.15-2.76-1.39,1.37-1.39,2.76-1.39,4.15-1.36-6.91-2.76-13.83-4.12-20.75-1.39,4.15-2.79,9.68-4.15,15.21-1.39,0-2.76,0-4.15,1.37,0-2.76-5.53-31.79,5.53-31.79v9.68h6.91c0-1.37,1.39-2.76,2.76-4.15,4.15,2.78,8.31,6.91,13.83,11.08,1.03-2.08,2.44-3.96,4.15-5.54,5.53,11.06,11.08,22.11,17.96,33.18-8.29,0-1.36,13.83-1.36,17.98l-4.15,8.3c-1.36-5.53-2.76-9.68-4.15-13.81-2.76,6.9-4.12,13.81-5.53,20.74,0-11.08,1.39-23.5-2.76-33.19-2.76,15.21-4.15,30.41-5.53,47l4.12-8.3h5.55v6.91c-4.15,4.14-5.55,5.53-5.55,13.83,1.39-1.39,5.55-8.31,9.68-4.15,0,4.15-9.68,12.44-5.53,16.59-2.79-.01-4.18-.01-5.54,1.37h0ZM1313.13,846.03c1.39-6.91,2.79-13.81,4.15-20.74-1.36,6.91-2.76,13.83-4.15,20.74ZM879.07,840.49c-5.53-6.9-12.44-13.81-6.91-19.35,5.53,4.15,11.06,8.3,16.59,13.83-4.15,1.39-6.91,2.76-9.68,5.53h0ZM1177.66,840.49c-2.76-4.14-5.53-8.29-6.91-11.06,5.55-1.37,11.08-2.76,17.99-4.14,0,1.37,0,2.76,1.36,4.14-6.89,0-4.12,5.54-5.53,8.3-2.56.06-5.02,1.04-6.91,2.76h0ZM1275.81,840.49v-4.14h2.76v4.14h-2.76ZM1299.33,840.49v-2.76h1.36v2.76h-1.36ZM1321.44,840.49l4.12-24.88v22.11c-1.36,0-2.76,1.39-4.12,2.76ZM1502.54,840.49c-5.53-8.29,0-15.2,5.53-20.74,6.91,6.93-.01,15.21-5.53,20.74ZM974.45,837.73v-1.37h2.76v1.37h-2.76ZM1138.96,834.97c-1.37-2.76-1.37-5.54-1.37-6.91h4.15c-1.74,1.89-2.73,4.35-2.78,6.91ZM1145.87,834.97c-1.37-1.37-1.37-2.76-1.37-2.76h5.53c-1.4,0-2.78,1.39-4.15,2.76ZM1162.46,834.97c1.39-6.91,2.76-13.83,5.53-20.75,0,5.54,2.76,15.21-5.53,20.75ZM1253.7,833.59l-6.91-6.91c2.76,0,13.83,4.14,6.91,6.91ZM563.88,832.2c-1.39-2.78-2.76-5.54-2.76-8.31,5.54-2.76,11.06-4.14,17.98-5.53v9.68c-5.53,1.39-11.06,2.78-15.21,4.16ZM1711.26,832.2c-4.15-1.39-8.29-2.78-11.08-4.15-1.36-2.76-1.36-5.54-1.36-8.3,5.53,0,12.44,1.37,19.35,2.76-1.39,2.78-1.39,5.54-1.39,8.3-2.76,0-4.12,0-5.53,1.39h0ZM1297.93,829.43c0-9.68,5.53-17.98,9.68-22.11-4.15,6.91-6.91,13.83-9.68,22.11ZM1407.13,829.43c-1.36-4.14-2.76-8.3-2.76-11.06,2.76-2.76,5.53-5.54,9.68-8.3,15.2,6.93-1.36,15.23-6.91,19.36h0ZM1260.61,828.05v-4.15h4.12v4.15h-4.12ZM1134.82,826.68c-1.39-2.78-1.39-5.54-1.39-8.3,4.15-4.15,2.76-12.44,1.39-19.35,2.76,8.3,8.29,16.59,5.53,26.26-2.78,0-4.15,0-5.53,1.39h0ZM1340.79,826.68c0-2.78,0-5.54,1.36-6.91h5.55c-2.96,1.54-5.37,3.96-6.91,6.91h0ZM897.04,825.29c-11.06-13.83-22.11-27.65-31.79-41.46l37.31,41.46h-5.53ZM1097.49,825.29c.05-2.56,1.03-5.02,2.76-6.91,0,1.37,1.39,4.14,2.76,6.91h-5.53,0ZM1107.17,825.29l8.3-4.15v4.15h-8.3ZM1173.52,825.29c0-1.39,1.36-2.78,2.76-4.15,0,1.37,0,2.76,1.36,4.15h-4.12ZM409.06,821.14c-1.39-4.14-1.39-6.91-1.39-9.68,5.54-2.76,11.06-4.14,17.98-5.53l4.15,4.14c-6.91,2.76-13.83,6.91-20.74,11.06h0ZM602.59,819.75c-1.39-4.14-2.76-6.91-2.76-9.68,5.54-1.37,12.44-1.37,19.35-1.37v6.91l-16.59,4.14h0ZM1190.1,819.75c0-2.76,0-4.14,1.39-5.54,0,1.39,1.39,2.78,2.76,4.15-1.36.01-2.76.01-4.15,1.39ZM1671.18,819.75c-4.15-1.37-8.31-2.76-11.08-2.76,0-4.15,0-6.91,1.39-9.68,5.53,0,11.05,0,16.56,1.37,0,2.76,0,5.53,1.39,8.3-2.74,0-5.5,1.39-8.26,2.76h0ZM1867.48,819.75c-31.79-20.74,0-19.35,6.89-4.14-2.75,1.37-5.51,2.76-6.89,4.14ZM761.56,818.38c-5.54-5.54-8.3-12.44-8.3-20.74h6.91c5.53,5.53,8.29,11.06,8.29,19.35-2.75,0-5.51,0-6.9,1.39ZM1284.1,816.99c2.79-9.68,5.55-17.98,9.68-26.26-1.37,9.68-2.76,19.35-9.68,26.26ZM1180.42,815.62c2.79-13.83,6.91-26.26,11.08-38.7,2.76,5.53,8.29,33.18,1.39,33.18-1.39-6.91-2.79-13.81-2.79-19.35-4.14,8.29-6.9,16.58-9.68,24.88ZM1073.99,814.23c-1.37-1.37-2.76-2.76-2.76-4.14,4.15-1.37,9.68-2.76,15.21-2.76v4.14c-4.16,0-8.31,1.37-12.45,2.76ZM1101.63,814.23v-4.14c1.93-.06,3.85.42,5.53,1.37-2.76,0-4.14,1.37-5.53,2.76ZM1091.95,812.84v-4.14h2.76v4.14h-2.76ZM1220.51,812.84v-5.53h4.15c-1.7,1.58-3.11,3.45-4.15,5.53ZM1568.88,812.84c8.31-24.88,16.59-70.5,44.23-74.64-5.53,16.59-11.05,33.18-15.2,51.14-15.2,6.91-9.68,5.53-9.68,20.74-6.91,0-13.83,1.39-19.35,2.76ZM692.45,811.47c-1.37-6.91-1.37-12.44-1.37-17.96-17.98,0-23.5-42.87-26.26-55.3h9.68c12.44,23.5,24.88,48.38,37.33,73.25h-19.36s0,.01,0,.01ZM856.95,811.47c-17.98-13.81-6.91-23.5,6.91-9.68-1.37,2.76-1.37,5.54-1.37,8.3-2.78-.01-4.16-.01-5.54,1.37h0ZM1028.36,805.94v-2.78h1.39v2.78h-1.39ZM1241.26,805.94v-4.15h4.12v4.15h-4.12ZM1335.24,805.94v-2.78h1.39v2.78h-1.39ZM1071.21,803.17c-2.76-5.53-4.14-9.66-5.53-13.81,5.53,0,11.06,0,17.96,1.37v6.91h9.68c.01,5.53-16.58,5.53-22.11,5.53ZM444.99,800.4c-9.68-9.68,11.06-13.81,17.98-12.44,0,1.37,0,2.76,1.37,5.54-6.72,1.45-13.23,3.77-19.35,6.9ZM1831.54,800.4c-5.53-2.76-11.08-4.14-15.2-5.54-1.39-2.76-1.39-5.53-1.39-6.9,6.91-6.91,13.83,0,20.75,2.76v6.91c-1.4,0-2.8,1.39-4.16,2.76h0ZM920.54,799.03v-2.76h1.37v2.76h-1.37ZM1430.65,799.03c-5.53-5.53,0-12.44,2.76-17.98h6.91c0,2.78,0,5.54,1.39,8.3-4.15,2.76-8.31,5.51-11.06,9.68ZM1523.25,799.03c0-8.3-1.36-11.06,4.15-19.35h6.91c-1.39,5.54-2.76,11.06-2.76,16.59-2.75,0-5.54,1.37-8.3,2.76ZM1162.46,796.27v-4.15h5.53v4.15h-5.53ZM1313.13,793.5v-1.39h2.79v1.39h-2.79ZM1253.7,790.73c1.36-9.68,1.36-23.5,8.29-30.41-2.94,10.09-5.7,20.23-8.29,30.41ZM485.08,783.83c-1.37-4.15-2.76-6.91-2.76-9.68,8.3-2.78,11.06-6.91,19.35-2.78v6.91c-5.53,1.39-11.05,2.76-16.59,5.54ZM1065.69,783.83c-1.39-1.39-2.78-2.78-2.78-4.15,2.78-1.37,5.54-1.37,8.3-1.37l4.15,4.14c-4.15-.01-6.91-.01-9.68,1.39ZM833.45,781.05c-2.76-6.9-6.91-8.3-6.91-17.98h6.91c1.37,4.15,2.76,9.68,5.53,15.21-2.76,0-4.15,1.39-5.53,2.76h0ZM1036.66,778.29v-2.76h1.37v2.76h-1.37ZM739.45,776.91c-2.76-8.3-6.91-11.06-2.76-20.74,1.93-.06,3.85.42,5.53,1.37l4.14,16.59c-2.56.06-5.01,1.05-6.9,2.78h0ZM912.24,776.91c-1.37-5.54-1.37-11.06-1.37-15.21h6.91c-1.37,4.15-1.37,9.68-1.37,15.21h-4.16,0ZM1347.7,776.91v-1.37h2.76v1.37h-2.76ZM1320.04,775.53c-1.36-1.37-1.36-2.78-1.36-2.78,2.76,0,4.12,0,1.36,2.78ZM1165.22,772.75v-4.14h4.15v4.14h-4.15ZM1788.68,771.38v-2.76h4.15v2.76h-4.15ZM526.56,768.61c-1.37-2.76-2.76-5.54-4.15-6.91,6.91-2.76,12.44-6.9,22.13-4.14-1.37,1.37-1.37,4.14-1.37,6.91l-16.6,4.14h0ZM1748.57,768.61c-5.53-2.76-11.05-4.14-15.2-5.54,0-15.2,15.2-6.9,23.5-2.76-2.75,2.76-5.51,5.54-8.3,8.3ZM1224.67,765.85c-6.91-6.91-9.68-15.21-11.08-24.89h5.55c0-4.14,1.36-6.91,2.76-9.68h4.12c-1.36,8.3-2.76,16.59-2.76,26.26h4.15v-45.63c1.39,0,4.15,0,6.91,1.37,2.76-5.53,5.53-11.06,8.29-15.2h20.75c-1.39,2.76-1.39,5.53-1.39,9.68-4.12-1.37-8.29-2.78-11.05-4.15-5.55,16.59-8.31,24.89-4.15,41.48,1.39,0,2.76,0,4.15,1.37,0-15.21-2.76-16.59,4.12-30.41,4.15,0,8.31,1.37,13.83,2.76v-4.15h11.08v-5.53c11.05,0,22.11-11.06,23.49-20.74h4.15c-2.76,5.53-5.53,11.06-6.91,16.58,1.09-2.47,3.07-4.44,5.55-5.53,0,2.76,0,5.53,1.36,9.68,12.44,5.53,26.26,19.35,20.75,35.94-1.39-5.54-16.59-23.5-29.03-33.19-30.43,4.15,0,17.98-9.68,27.65,0-4.14-8.31-19.35-12.44-20.74,2.76,12.44,5.53,24.88,8.29,38.7-5.53-11.06-9.68-22.11-13.83-31.79-2.76-1.39-4.12-1.39-5.53-1.39-1.39,1.39-1.39,2.78-1.39,5.54-4.12,0-8.29,1.37-11.05,2.76,0,4.15,1.36,8.3,2.76,13.83-5.53,0-11.08,1.37-16.59,2.76-2.76-6.91-5.53-13.81-6.91-19.35-1.36,11.06-2.76,23.5-2.76,35.94-2.78.05-4.18.05-5.54.05h0ZM1451.38,765.85c-1.39-1.37-2.79-2.78-4.15-2.78,1.36-5.53,2.76-11.06,4.15-16.58,13.81,0,5.53,13.81,0,19.35ZM946.8,764.48v-2.78c4.15,0,12.44-2.76,12.44,2.78h-12.44ZM1156.93,760.31v-2.76h2.76v2.76h-2.76ZM568.03,757.55c-1.37-4.15-1.37-8.3-1.37-11.06,5.53-1.37,11.06-1.37,16.59-1.37v6.9c-5.54,1.39-11.06,2.79-15.21,5.54ZM948.18,757.55c-1.39-2.76-1.39-4.15-1.39-5.54,4.15,0,8.3,1.37,12.44,2.78-3.84.11-7.61,1.05-11.05,2.76h0ZM1542.6,757.55c-11.05,0,0-20.74,1.39-23.5,2.76,0,5.53,1.39,9.68,2.78-1.37,9.68-5.51,15.2-11.06,20.73h0ZM1705.75,757.55c-4.15-1.37-8.31-2.76-11.08-2.76,0-4.15,1.39-8.3,2.76-11.08,5.55,1.39,11.08,2.78,16.59,5.54-1.36,1.37-1.36,4.14-1.36,6.91-2.79.01-5.55.01-6.91,1.39h0ZM946.8,747.88c-1.37-1.37-1.37-2.76-1.37-2.76h6.91c-2.76,0-4.15,1.39-5.54,2.76h0ZM814.09,746.5c-2.2-4.46-4.05-9.08-5.53-13.83l8.3-4.14,4.14,16.59c-2.76-.01-5.53-.01-6.91,1.37ZM840.35,745.11c-2.76-5.54-5.53-9.68-6.91-13.83,1.37,0,4.15,0,6.91,1.37v12.45ZM908.09,745.11c-4.15-2.78-8.3-5.54-11.06-8.3,1.37-5.54,2.76-9.68,4.15-13.83h5.53c2.76,6.91,8.3,12.45,5.53,20.74-1.37,0-2.76,0-4.14,1.39h0ZM1268.9,742.35v-1.37h2.76v1.37h-2.76ZM1336.64,742.35c-1.39-6.9-2.76-12.44-2.76-17.98,1.36,5.54,5.51,15.21,2.76,17.98ZM946.8,740.96c-1.37-1.37-1.37-2.76-1.37-2.76h6.91c-2.76,0-4.15,1.39-5.54,2.76h0ZM724.23,732.67c-2.76-8.3-4.15-15.2-5.53-22.11h6.91c0,6.91,1.39,13.81,2.76,20.74-1.37-.01-2.76-.01-4.15,1.37ZM942.66,731.29v-2.76h6.91c-2.56.05-5.02,1.03-6.91,2.76ZM1465.2,731.29c-2.76-1.37-4.12-2.76-5.53-2.76,1.39-5.54,2.76-11.06,4.15-15.21h8.29c0,5.54-1.37,15.21-6.91,17.98h0ZM1231.59,728.52v-2.76h1.36v2.76h-1.36ZM1140.33,725.76c-12.44-4.15-23.5-16.59-31.79-24.89-11.06-6.91-22.11-13.81-31.79-20.74-13.83-1.37-33.19-5.54-44.24-12.45,0-15.2,0-30.41,1.37-45.61,17.98-20.74,55.3-40.09,66.35-63.59,30.41-9.68,48.38-2.76,71.88,11.06,4.15,0,8.29,0,12.44,1.37,15.2-15.2,17.99-40.09,6.91-59.44,0-9.68,5.53-13.81,6.91-22.11,5.53-1.37,12.44-2.76,19.35-2.76,0-2.76,1.39-5.53,2.76-6.91-8.29,1.37-16.59,2.76-23.5,4.15-11.05-2.76-22.11-5.53-33.16-6.91-1.39,1.39-2.79,2.76-2.79,5.53,2.79,4.15,6.91,9.68,11.08,15.21h-5.53c-2.76-4.15-5.55-6.91-8.31-9.68h-12.43v4.14c5.51,5.54,23.5,16.59,23.5,24.89h-5.53c-4.15-5.54-8.31-9.68-11.08-13.83-4.15,0-8.29,1.39-11.06,2.76,9.66,6.91,22.13,16.59,26.25,29.04h-5.53c0-15.21-47-38.71-60.82-47-16.59,0-27.65-4.15-42.85-8.3,0-8.3-12.44-15.2-17.98-19.35,0-2.76,0-4.15,1.37-5.53,16.59,0,30.41,9.68,44.24,17.96,0-6.91-24.89-17.96-29.04-19.35,0-1.37,0-2.76,1.39-4.14-2.76-1.37-4.15-2.76-5.54-2.76,19.36,0,31.8,4.15,48.39,13.83,0-6.91-22.13-13.83-27.65-15.2v-5.53c4.15-1.37,9.68-1.37,15.2-1.37-2.76-2.76-5.53-5.54-8.3-6.91,17.98,4.15,26.26,9.68,41.48,19.35-1.39,2.76-2.76,5.53-2.76,8.3h-8.29c0,16.59,23.5,9.68,33.18,8.29,0-2.76,1.37-4.15,2.76-5.53l12.44,8.3c-1.39-4.15-2.76-8.3-2.76-11.06,9.68,6.91,17.96,12.44,30.4,12.44-12.44-11.06-23.49-22.11-34.55-33.18-4.15,2.76-8.29,5.53-11.06,8.29-1.39,2.76-1.39,5.53-1.39,8.3-2.76-1.39-4.14-2.76-5.53-2.76-2.56.05-5.02,1.03-6.91,2.76-8.3-12.44-20.74-16.59-29.03-24.88,4.15-1.37,8.3-2.76,12.44-2.76,0-2.76,0-5.53,1.37-6.91-1.37-1.37-2.76-2.76-4.15-2.76-4.15,4.15-16.59,4.15-23.5,2.76-1.37-5.54-1.37-11.06-1.37-15.21,5.53,5.54,11.06,5.54,19.35,6.91l4.15-8.3c0,1.37,1.37,2.76,2.76,5.54v-5.54c6.91,2.76,12.44,13.83,16.59,17.98-2.76,0-5.54,1.37-8.3,2.76,6.91,5.54,13.83,11.06,22.11,16.59-1.03-2.08-2.43-3.95-4.14-5.53,1.37-4.15,2.76-6.91,4.14-9.68,8.29-2.76,16.6-4.15,26.28-5.53,0,2.76,1.36,5.53,2.76,9.68h-8.31v5.53c5.55-1.39,12.46-1.39,19.35-1.39l-8.29-4.14c0-4.15,1.39-8.3,2.76-12.44h4.15c0,1.39,0,2.76,1.36,5.53v-6.91c2.79-1.39,5.55-1.39,9.68-1.39v11.06h-4.12c0,5.53,1.36,12.44,2.76,19.35,4.15,8.29,9.68,16.59,15.2,26.26,5.55-1.37,11.08-2.76,16.59-2.76-2.76-5.54-5.53-11.06-6.91-15.21,8.31,0,17.99,0,27.66,1.39v5.53c-4.15,0-6.91,1.37-9.68,2.76,0,4.15,0,8.3,1.36,12.44,23.5,15.2,23.5,33.18,35.94,45.61,0-5.53,1.39-9.68,2.76-13.81,1.39,1.37,2.76,4.14,5.55,6.91,0-4.15,0-6.91,1.36-9.68,4.15,0,5.53,5.53,6.91,9.68v-11.06h5.53c-2.76,6.91-5.53,15.21-6.91,23.5-1.36-2.76-2.76-4.15-2.76-5.54,0,4.15-6.91,8.3-9.68,9.69,2.76,19.35-1.36,37.31,19.35,37.31-4.12,1.39-8.29,8.3-12.44,4.15-15.2,0-30.4,0-44.23-5.53-44.25,0-48.38,9.68-31.79,48.38,1.36,20.74-1.39,37.33,23.49,37.33-16.56,13.81-33.16,27.65-48.38,41.46-8.21,22.11-17.89,27.64-37.25,31.79h0ZM944.05,724.37c-4.15-1.37-8.3-2.76-11.06-4.14,5.53,0,11.06,0,16.59,1.37-2.78,0-4.15,1.37-5.53,2.76ZM1353.23,724.37c-1.39-9.68-2.76-17.96-2.76-26.25l-4.15,24.88c0-15.2,0-30.41,1.39-44.23,4.12,9.66,8.29,34.54,5.53,45.6h0ZM1190.09,720.24c-2.76-4.14-4.12-8.3-5.53-11.06,8.31-13.83,13.83-22.11,27.66-29.03-5.55,4.14-9.68,9.68-13.83,15.2,0,4.15,1.36,17.98-2.76,17.98,0-2.76,1.36-9.68-2.76-9.68,0,4.15,1.36,16.59-2.79,16.59h0ZM1255.06,713.31v-2.76c1.39,0,2.79,0,4.15,1.37-1.36.01-2.75.01-4.15,1.39h0ZM1555.04,713.31c-5.53-5.53-2.76-12.44-1.36-19.35,1.89-1.73,4.35-2.71,6.91-2.76v19.35c-2.76,0-4.15,1.39-5.55,2.76h0ZM798.89,711.94c-1.37-6.91-2.76-13.81-2.76-19.35h6.91c1.37,5.54,2.76,11.06,4.15,17.98-2.78-.01-5.54-.01-8.3,1.37h0ZM991.05,705.02c-1.39-2.76-1.39-5.53-1.39-6.9l5.53,5.53c-1.39-.01-2.76-.01-4.14,1.37h0ZM1155.54,703.64c1.39-4.14,4.15-8.3,6.91-11.06h6.91c-5.53,2.78-9.68,6.93-13.83,11.06h0ZM1338.03,703.64c-1.39-1.37-2.79-2.76-2.79-4.14,1.39-4.15,2.79-6.91,4.15-9.68-1.36,4.14-1.36,8.29-1.36,13.81ZM1255.06,696.74c-2.76-5.54-4.12-11.08-5.53-15.21,2.76-1.37,5.53-2.76,9.68-2.76v-13.83c2.76,6.91,5.53,16.59,4.15,26.26-2.75,1.39-5.51,2.76-8.3,5.54h0ZM1473.5,696.74c-1.39-6.91-1.39-12.45-1.39-17.98,2.76-1.39,6.91-1.39,11.08-1.39-1.39,5.54-1.39,11.08-1.39,16.59-2.78,0-5.54,1.39-8.3,2.78h0ZM1289.65,692.59c-1.39-8.3-2.76-16.59-2.76-23.5h4.12c0,2.78,0,5.54,1.39,8.3l4.15-4.14c-1.39,5.54-2.79,11.06-2.79,16.59-1.36-.01-2.75,1.36-4.11,2.75h0ZM713.18,689.82c-1.25-7.4-2.63-14.78-4.15-22.13,2.76,0,5.53,0,9.68,1.37,0,5.54,0,11.08,1.37,17.99-2.56.05-5.01,1.03-6.9,2.76h0ZM1123.74,687.06l-8.29-8.3c1.93-.06,3.85.42,5.53,1.37,9.68-5.54,20.74-11.08,31.8-16.59-6.91,11.06-16.59,19.36-29.04,23.51h0ZM902.57,685.67v-1.37h8.3v1.37h-8.3ZM982.75,684.28c-4.15-12.44-9.68-15.21-6.91-29.03,13.83,1.37,13.83,15.21,15.21,29.03h-8.3ZM1216.36,678.76c5.55-8.3,11.08-15.21,16.59-22.13,2.76,1.37,5.55,2.76,9.68,5.54-2.76,1.37-5.53,2.76-8.29,5.53,6.91-1.37,13.83-2.76,22.11-4.14v4.14c-13.83,2.78-27.63,6.91-40.09,11.06ZM908.09,677.37c-1.37-1.37-1.37-2.76-1.37-4.14,1.93-.06,3.85.42,5.53,1.37-1.39,0-2.78,1.37-4.15,2.76ZM794.74,675.98c-6.91,0-5.53-16.59-5.53-19.35h6.91c0,4.15,1.39,8.3,2.76,13.83-1.37,1.39-2.76,2.78-4.15,5.53h0ZM1560.59,669.07v-20.74c2.76-1.37,6.91-1.37,11.05-1.37-1.36,6.91-2.76,13.83-2.76,20.74-2.76,0-5.53,0-8.29,1.37ZM902.57,667.7v-6.9c9.68,0,19.35,0,29.04,1.37-9.69,1.37-19.36,2.76-29.04,5.53h0ZM932.98,663.55v-1.37h2.76v1.37h-2.76ZM1292.4,662.17c-2.76-1.37-4.15-2.78-5.53-2.78,1.88-1.73,4.33-2.71,6.89-2.76-1.36,1.39-1.36,2.76-1.36,5.54h0ZM1080.89,660.8c-4.14-2.78-8.29-5.54-11.06-6.91,0-19.35,1.37-24.88,19.35-33.18,0,11.06-12.44,20.74-12.44,33.18,1.37,0,4.14,1.37,6.91,2.76-1.37,1.37-2.76,2.75-2.76,4.15ZM1477.63,659.4c0-6.9,0-12.44,1.39-17.96h8.29v16.58c-4.14.01-6.9.01-9.68,1.39ZM909.47,658.02c-4.14-2.76-8.29-4.14-11.06-5.53h5.53c-2.28-5.85-4.13-11.86-5.53-17.98,2.76-2.76,5.53-5.53,8.3-6.91,5.53-15.2,11.06-29.03,16.59-42.85,2.76,6.91,6.91,6.91,4.15,13.81,1.37,2.76,2.76,5.54,4.15,9.68-4.15,1.39-8.3,2.76-11.06,4.15,2.76,0,5.53,1.37,8.3,2.76-2.76,1.37-5.53,2.76-6.91,4.15,1.39,0,2.76,1.37,4.15,2.76-3.12,4.65-5.46,9.79-6.91,15.2,6.91,6.91-2.76,12.44-2.76,19.35-2.78.01-5.54.01-6.93,1.4h0ZM944.05,656.63v-1.37h5.53v1.37h-5.53ZM1278.57,655.26c-5.53-8.3-11.05-16.59-15.2-24.88-5.53,5.53-6.91,6.9-6.91,16.58-4.15,0-6.91,1.37-9.68,2.76,0-2.76,1.39-5.53,2.76-8.29-4.15,0-8.29,0-11.05,1.37,6.89-5.54,13.8-9.68,22.11-13.83,0-13.83-22.11-29.03-33.19-30.41-1.39-2.76-1.39-5.53-1.39-8.29,8.31,0,13.83,8.29,19.35,12.44-1.36-4.15-11.05-16.59-6.89-20.74,2.76,2.76,5.53,6.91,9.68,11.06,0-2.76,0-4.15,1.36-5.54,1.39,1.37,4.15,2.76,6.91,4.15,0-1.37,0-2.76,1.39-4.15,4.12,4.15,9.68,9.68,15.2,15.21l8.29-8.3c1.39,2.76,4.15,5.53,6.91,9.68-2.76,0-4.15,0-5.53,1.37,1.36,4.15,4.15,8.3,6.91,13.83,0-4.15,1.36-6.91,2.76-9.68,0,4.15-1.39,31.8-9.68,23.5-2.47,1.08-4.44,3.06-5.53,5.53-5.55-19.35,0-35.94-23.5-35.94,1.36,5.53,4.15,12.44,6.91,19.35,4.12,0,11.05,0,6.91,4.14,2.78,9.71,6.91,19.39,11.06,29.07h0ZM1286.89,655.26v-5.54c1.36-1.37,2.76-2.76,5.53-2.76,0,1.37,0,2.76,1.36,4.15-2.76,1.39-5.53,2.76-6.89,4.15h0ZM1281.34,646.96v-4.14h8.31l-8.31,4.14ZM710.41,642.82c-2.76-1.37-4.15-2.78-5.53-2.78v-17.96h8.3c-1.39,6.91-2.78,13.83-2.78,20.74ZM1090.56,642.82v-5.54h5.54c-2.47,1.09-4.45,3.06-5.54,5.54ZM787.84,640.04c-5.54,0-2.76-16.58-2.76-19.35h6.91c0,5.53,0,11.06,1.39,16.59-2.79,0-4.16,1.37-5.54,2.76ZM1224.67,640.04c-1.23-6.02-2.62-12.01-4.15-17.96h8.31l-8.31-16.59c5.53,6.91,11.08,15.2,16.59,23.5-2.76-1.39-4.15-1.39-5.53-1.39v8.3c-2.76,1.37-5.55,2.75-6.91,4.14h0ZM1303.45,635.91v-26.26c6.91,0,4.15,17.96,4.15,22.13l-4.15,4.14ZM1295.16,630.38c0-2.78-1.39-16.59,4.15-11.06-1.39,2.76-2.75,6.91-4.15,11.06ZM1285.49,627.61v-2.76h1.39v2.76h-1.39ZM1481.78,623.47c-5.53-5.54-2.76-12.44-1.36-19.35h8.29c-1.39,5.53-1.39,11.06-1.39,17.98-2.78-.01-4.15-.01-5.54,1.37h0ZM1563.35,623.47c-1.39-8.3-2.76-15.21-2.76-22.13,2.76-1.37,5.53-1.37,9.68-1.37v22.13c-2.76-.01-5.55-.01-6.91,1.37ZM1314.51,619.32v-2.76h2.76v2.76h-2.76ZM1237.11,616.54v-4.14h2.76v4.14h-2.76ZM790.59,604.11c-6.91,0-2.76-15.21-2.76-19.35,2.76,0,5.53,0,8.29,1.37-2.75,5.54-4.14,11.06-5.53,17.98h0ZM707.65,599.97c-1.39-8.3-1.39-16.59-1.39-23.5,2.76,0,5.54,1.37,9.68,2.76-1.37,5.53-2.76,12.44-2.76,19.35-2.76,0-4.14,0-5.53,1.39ZM1249.55,598.58v-2.76h1.39v2.76h-1.39ZM1371.19,598.58c0-1.37,0-2.76,1.39-4.14,0,1.37,1.39,2.76,2.76,4.14h-4.15ZM1039.42,595.82c-1.39-1.37-1.39-2.76-1.39-2.76h5.53c-1.37,0-2.76,1.37-4.14,2.76ZM1264.75,590.29v-2.76h2.79v2.76h-2.79ZM1299.33,590.29l-4.15-4.15c1.39-4.15,2.76-8.3,5.53-12.44,5.55,1.37,11.08,4.14,17.99,6.91-6.93,2.76-13.85,5.53-19.36,9.68ZM1046.34,588.9c1.37-2.76,4.15-4.14,6.91-5.53-1.37,1.37-1.37,2.76-1.37,5.53h-5.54,0ZM984.12,587.52c0-8.29,0-13.81,9.68-9.68-3.87,2.5-7.17,5.8-9.68,9.68ZM1477.63,586.14c-1.36-6.91-1.36-13.83-1.36-19.35,2.76,0,5.53,0,8.29,1.37,0,4.15,0,9.68,1.39,15.21-2.78,0-5.54,1.37-8.31,2.76ZM1033.89,584.75l-12.44-16.59c4.15-5.53,8.3-9.68,13.81-13.81h8.3c-2.76-2.76-4.14-5.54-5.53-8.3,1.39-1.37,2.76-1.37,5.53-1.37v-4.15c-2.76-1.39-4.14-2.76-5.53-2.76,1.39-1.37,4.15-2.76,6.91-4.14-9.68-4.15-9.68-11.08-15.2-17.98l4.14-4.15c-4.14-2.76-8.29-4.14-11.06-5.53,0,2.76,0,5.53,1.37,8.3-4.14,1.37-8.29,4.15-12.44,6.91,0,2.76,0,6.91,1.37,11.06-24.88-4.15-4.15-34.56,6.91-42.85,1.37-1.37,4.14-1.37,6.91-1.37,1.37,1.37,2.76,2.76,5.53,4.14,0-2.76,0-4.14,1.37-5.53,11.06,6.91,13.83,13.83,11.06,27.65,2.76-1.39,6.91-2.76,11.06-2.76,0-13.81,1.37-9.68,6.91-22.11,6.91,1.37,13.83,2.76,20.74,5.53,5.53,16.59,5.53,15.2-9.68,19.35,8.3,0,16.59,1.37,24.88,2.76,8.3-8.3,16.59-9.68,27.65-11.06,1.37,5.53,2.76,11.06,5.53,16.59,4.15,4.15,8.29,8.3,13.83,12.45-2.78-1.37-5.54-2.76-6.91-4.15-15.2,0-30.41-2.76-44.24,4.15v-11.06h-12.44c0,15.2-1.39,23.5-15.2,27.65-1.37,2.76-2.78,5.53-2.78,9.68l8.3,8.3c-4.15,2.76-6.91,5.53-9.69,9.68-2.76-5.53-4.14-9.68-5.53-13.83-4.15,5.53-6.91,11.06-9.68,16.59-6.91,0-9.68-6.91-16.59-9.68.03,4.11,1.41,8.25,2.79,12.4h0ZM1404.37,583.38v-6.91h-4.15c0-20.74-5.53-29.03-23.49-34.56-2.76,1.37-5.55,2.76-6.91,4.15l8.29,4.15c0,4.15-6.91,5.53-9.68,6.91v-4.14h-6.91c-2.76-4.15-5.53-8.3-6.89-11.06,1.36-2.76,2.76-5.53,5.53-6.91-8.31,0-16.59,0-23.5,1.37,22.11-11.06,33.19-4.15,58.07,1.37,8.31,8.3,9.68,27.65,13.83,40.09-1.72,1.57-3.14,3.45-4.18,5.54h0ZM1129.28,577.84c1.37-6.91,2.76-12.44,4.15-17.96h6.91c-.01,6.9-6.91,13.83-11.06,17.96ZM1274.42,577.84c0-1.37,0-5.53,2.79-2.76-1.4,0-2.79,1.39-2.79,2.76ZM1559.2,576.47c-1.36-8.3-2.76-15.2-4.15-22.11h11.08c0,6.91,0,13.81,1.39,22.11h-8.31,0ZM932.98,569.55c-4.15-4.15-8.3-6.91-12.44-9.68l12.44,4.15v5.53ZM977.22,569.55v-2.76h1.37v2.76h-1.37ZM1309,569.55c-11.08-9.68-22.11-19.35-31.79-27.65,0-11.06,8.29-11.06,17.96-12.44,4.15,9.68,12.44,8.3,22.11,9.68,0,11.06-5.53,17.98-1.36,27.65-2.57.03-5.04,1.02-6.93,2.76h0ZM794.74,566.78c-5.53,0-2.76-13.81-2.76-16.59,2.76-1.39,6.91-2.76,11.06-2.76l-4.15,16.59c-1.37.01-2.76,1.39-4.15,2.76ZM1264.75,561.25c-1.15-3.77-2.52-7.46-4.12-11.06-17.99-4.15-26.26,2.76-42.87,4.15-1.39-2.76-2.76-4.15-2.76-5.54,12.44-12.44,11.05-41.46-5.53-47,0-1.37,0-2.76,1.36-4.14,5.53,2.76,11.08,5.53,17.99,8.29,0,8.3,6.89,13.83,12.44,19.35-1.39,0-2.76,0-4.15,1.39,5.53,4.15,11.08,8.3,16.59,13.83,0-2.76,0-4.15,1.36-5.53,6.93,6.91,16.6,19.36,9.69,26.26h0ZM1076.75,557.1c11.06-6.91,30.41-17.98,44.23-17.98,0,2.76,0,5.54,1.39,8.3-15.2,2.78-30.41,5.54-45.61,9.68h0ZM939.89,552.97c-2.08-1.03-3.95-2.44-5.53-4.15,4.14,0,9.68,0,5.53,4.15ZM1173.52,552.97c0-1.39,0-2.76,1.36-4.15,0,1.39,1.39,2.76,2.76,4.15h-4.12ZM710.41,551.58c0-6.91,1.39-13.83,2.76-20.74,2.76,0,5.53,0,9.68,1.37-1.37,5.53-2.76,11.06-2.76,16.59-4.14.01-6.9,1.4-9.68,2.78h0ZM1050.49,551.58c-1.37-1.37-2.76-2.76-2.76-4.15,4.14,0,5.51,1.39,2.76,4.15ZM1469.35,550.2c-1.23-6.03-2.62-12.02-4.15-17.98,2.76-1.37,5.55-1.37,8.31-1.37,0,5.53,0,11.06,1.36,17.96-2.76,0-4.14,0-5.53,1.39ZM1087.8,548.81v-4.14c8.3-4.15,23.5-15.21,31.79-11.06-11.05,4.14-22.1,9.66-31.79,15.2h0ZM1364.29,546.05v-2.76h1.36v2.76h-1.36ZM1158.31,543.28c0-5.53,1.39-6.91,5.55-2.76-2.8.01-4.16,1.39-5.55,2.76ZM939.89,541.9c-4.15-4.15-6.91-6.91-6.91-13.83,8.3,0,9.68,11.06,6.91,13.83ZM999.34,540.53v-9.68h4.15v6.91c-1.39-.01-2.76,1.37-4.15,2.76h0ZM1239.87,540.53l-6.91-6.91c1.39-1.39,2.76-1.39,5.55-1.39,2.75,2.76,4.11,5.53,1.36,8.3h0ZM1332.48,540.53c0-5.53-2.76-13.83,4.15-13.83-1.57,4.55-2.96,9.16-4.15,13.83ZM1490.1,537.75c-15.23-8.3-12.46-20.74-8.31-33.18,1.39,0,4.15,0,6.91,1.37l-4.15,16.59c1.39,1.39,2.76,2.76,4.15,5.54h8.31c8.29-19.35,11.05-33.18,31.79-37.33,2.76,1.37,5.53,4.15,9.68,6.91,0,5.53,1.36,22.11-6.91,22.11,0-5.53,0-11.06,1.36-16.59-2.76-1.37-5.53-2.76-8.29-2.76-5.53,9.68-11.08,19.35-15.2,30.41-6.72,1.46-13.22,3.79-19.34,6.91h0ZM1550.91,533.61c-5.55-5.54-6.91-19.36-1.39-24.89,8.31,8.3,5.53,11.06,8.31,22.13-2.57.03-5.04,1.02-6.93,2.76ZM1051.86,532.23v-1.37h4.15v1.37h-4.15ZM1324.2,530.84v-1.39h2.76v1.39h-2.76ZM804.41,529.46c-2.08-1.03-3.96-2.44-5.53-4.15,8.3-22.13,15.2-17.96,11.06,2.76-2.76,0-4.15,0-5.54,1.39h0ZM938.51,522.54c-1.39-2.76-1.39-4.14-1.39-5.53,1.39,0,2.76,1.37,5.54,2.76-1.37,0-2.76,1.39-4.15,2.76h0ZM1306.24,522.54c-2.79-1.37-5.55-1.37-8.31-1.37v-5.53l8.31-4.15v11.05h0ZM1177.66,519.78c-2.76-19.35,4.15-12.44,9.68-23.5-1.36,6.91-1.36,13.83-1.36,20.74-2.78.01-5.55,1.39-8.31,2.76ZM1459.67,515.64c-6.91-6.91-5.53-11.06-6.91-17.96,2.76,0,5.53,0,9.68,1.37,0,4.14,1.39,9.68,2.76,15.2-2.76,0-4.14,0-5.53,1.39ZM1259.22,511.49c-6.91-5.53-13.83-11.06-19.35-15.2,6.91-.01,19.35,8.29,19.35,15.2ZM725.62,505.96v-19.35c2.76,0,5.54,0,9.68,1.39,0,9.66-2.76,15.19-9.68,17.96h0ZM796.12,504.58c-6.91-5.53-41.48-35.94-41.48-44.24h67.74c-5.53,11.06-15.2,11.06-26.26,9.68-2.76,5.53-5.53,11.06-6.91,17.98,4.15,2.76,8.3,5.53,13.83,9.68-2.76,1.39-5.53,4.15-6.91,6.91h0ZM1143.09,501.81c-6.9-4.14-13.81-6.91-20.73-9.68,2.76-1.39,23.5,6.91,20.73,9.68ZM1032.51,500.42c-2.76-2.76-5.53-4.15-6.91-5.53,1.37,0,4.15,0,6.91,1.37v4.15ZM1313.13,497.66c0-2.76-4.12-12.44,1.39-12.44-1.39,4.15-1.39,8.3-1.39,12.44ZM1469.35,496.27l-4.15-12.44c16.59-6.91,34.58-13.83,52.54-20.74,1.39,2.76,2.76,6.91,5.53,11.06-17.98,4.15-41.48,9.68-53.92,22.11h0ZM815.48,493.52c-1.37-2.76-1.37-5.53-1.37-8.3l12.44-8.3c0,11.06-2.76,12.45-11.06,16.6ZM1046.34,493.52l-6.91-6.91c1.37-.01,12.44-5.54,6.91,6.91ZM984.12,487.99v-2.76h2.76v2.76h-2.76ZM1264.75,487.99c-1.36-2.76-13.8-19.35-9.68-23.5-3.08-2.08-6.32-3.93-9.68-5.53v-5.54c8.31,5.54,16.59,11.06,26.26,17.98,8.31-1.37,11.08,2.76,8.31,11.06h-6.91c-4.15-6.91-8.31-12.44-15.2-15.2,1.36,6.9,4.12,13.81,6.89,20.73ZM1537.09,487.99c-2.76-6.91-4.15-13.83-5.53-19.35h6.91c1.36,5.53,2.76,11.06,5.53,16.59-2.56.05-5.02,1.03-6.91,2.76ZM964.77,486.6c-1.37-1.37-2.76-1.37-4.14-1.37,5.53,0,11.06,0,16.59,1.37h-12.45ZM1103.02,485.22c-3.33-1.12-6.57-2.51-9.68-4.15,2.76-5.53,5.53-11.06,9.68-15.2,4.15,1.37,8.3,4.15,13.83,6.91,0,8.29-6.91,11.05-13.83,12.44ZM780.91,483.84c-4.15-5.53-8.3-9.68-11.06-13.83h16.59c0,1.37,0,2.76,1.37,5.53-2.75,2.78-5.51,5.54-6.9,8.3h0ZM1046.34,483.84c-8.3-2.76-15.2-5.53-22.13-6.91,6.91,0,15.21,1.39,23.5,2.76-1.37,1.39-1.37,2.78-1.37,4.15h0ZM1284.1,483.84c0-4.15,0-8.3,1.39-11.06h4.15c-2.75,2.78-4.15,6.93-5.54,11.06ZM1291.01,483.84v-4.15c1.39,0,2.76,1.37,4.15,2.76-1.39.01-2.76.01-4.15,1.39ZM1440.32,479.7c-2.76-4.15-5.53-8.3-6.91-12.44,9.68-9.68,13.83,1.39,13.83,11.06-2.76-.01-5.53-.01-6.91,1.37h0ZM1071.21,476.92c-6.91-5.53-13.83-9.68-19.35-13.83,6.91,0,24.89,8.3,19.35,13.83ZM1091.95,468.64c-8.3-6.91-16.59-13.83-24.88-19.35,1.37,0,31.79,12.44,24.88,19.35ZM1000.72,467.25c-2.08-1.03-3.96-2.44-5.54-4.15,4.15-1.37,9.68,0,5.54,4.15ZM1009.01,464.49c-2.41-3.51-5.19-6.75-8.29-9.68l8.29-4.15v-4.15c4.15,1.39,9.68,4.15,15.2,6.91l-16.59,4.15c4.15,1.37,8.3,2.76,12.44,5.53-4.14,0-8.29,0-11.05,1.39ZM744.97,463.1c-8.29,0,0-16.59,0-17.96,2.76-1.39,5.54-1.39,9.68-1.39,0,6.91-4.14,16.59-9.68,19.35h0ZM837.59,461.72c-2.76-1.37-4.15-2.76-5.53-2.76,1.37-5.54,4.15-11.06,6.91-15.21,2.76,0,5.53,0,8.3,1.39-4.15,5.53-6.93,11.06-9.69,16.59h0ZM1447.23,460.34c-2.76-4.15-5.53-8.3-6.91-11.06,15.19-9.57,30.88-18.33,46.99-26.26v-4.14c-4.12-2.76-6.89-5.54-9.68-8.3,1.39-1.37,2.79-1.37,5.55-1.37,11.05,11.06,17.96,23.5,23.49,35.94-2.76,1.37-4.12,2.76-5.53,4.15-2.76-5.54-4.12-11.06-5.53-15.21-16.6,8.3-33.19,16.59-48.39,26.26h0ZM1109.93,458.96c-6.91-4.15-13.81-8.3-20.74-12.44,5.53,0,20.74,4.14,20.74,12.44ZM825.15,450.66c-16.59-8.3-31.79-16.59-47-24.88,0-26.26,34.56-42.85,41.48-11.06,9.68,1.39,20.74,2.76,31.79,5.54-1.37,1.37-1.37,2.76-1.37,5.53h-37.31v4.15l16.59,8.3v9.68c-1.4-.01-2.78,1.37-4.16,2.75h0ZM1109.93,450.66c-6.91-4.15-13.81-8.3-19.35-11.06,5.53.01,23.49,6.93,19.35,11.06ZM1205.32,450.66c1.36-8.3,2.76-15.2,5.53-22.11,2.76,4.14,6.91,9.68,11.08,15.2h-12.44c-1.41,1.39-2.8,4.15-4.16,6.91h0ZM1285.49,450.66c1.39-2.76,2.76-4.15,4.15-5.53,0,1.37,0,2.76,1.36,5.53h-5.51ZM1420.96,449.28c-2.76-5.54-4.15-11.06-5.53-16.59,8.29,0,11.05,8.3,11.05,15.21-2.76-.01-4.12-.01-5.53,1.37h0ZM1516.34,445.13c-2.76-5.53-9.68-12.44-6.89-19.35,9.68,0,12.44,6.91,13.8,16.59-2.56.05-5.02,1.03-6.91,2.76h0ZM1255.06,438.22c-5.53-1.39-9.68-2.76-13.8-2.76,0-5.53,0-11.06,1.36-15.2,2.76,2.76,6.91,5.53,11.08,9.68v4.14c2.76-1.37,5.53-2.76,9.68-4.14-1.39,1.37-1.39,4.14-1.39,6.91-2.76-.01-5.53-.01-6.93,1.37h0ZM1028.36,436.83c-4.15-4.15-1.37-2.76,0-4.15v4.15ZM1039.42,436.83c-1.39-6.91-1.39-13.83-1.39-19.35,1.39,0,2.76,1.39,5.53,2.76,0-2.76,1.37-4.15,2.76-5.54,2.76,1.39,5.53,2.76,9.68,5.54v-5.54c4.15-1.37,8.29-1.37,13.83-1.37,0,2.76,0,5.54,1.37,9.68-12.43,1.39-20.71,11.06-31.78,13.83h0ZM1427.88,435.46c-11.08-11.06,12.44-40.09-5.53-40.09-4.15,4.15-8.31,8.29-11.08,12.44-6.91,0-6.91-6.91-8.29-11.06,13.8-11.06,29.03-22.13,44.23-33.18,8.29,9.68,16.59,20.74,16.59,33.18-6.91,6.91-15.23,6.91-24.9,8.29-2.76,9.68-5.53,19.35-6.89,30.41h-4.14s0,.01,0,.01ZM858.33,429.93c-1.37-2.76-2.76-5.54-2.76-6.91,2.76-4.14,5.53-8.3,8.29-11.06h5.53c.01,8.3-4.14,13.83-11.05,17.98h0ZM805.8,428.55c-5.53-4.15-11.06-6.91-16.59-9.68,0-13.83,5.53-15.21,17.98-15.21,4.14,6.93,1.37,17.98-1.39,24.89ZM1231.58,428.55c-2.76-1.39-5.55-2.76-6.91-2.76v-5.53c2.76,0,5.53,1.37,8.29,2.76-1.37,1.37-1.37,2.76-1.37,5.53ZM1195.63,425.78c-1.39-2.76-1.39-5.53-1.39-8.3h15.23c-1.39,1.39-1.39,4.15-1.39,6.91-1.39-1.37-2.76-2.76-4.15-2.76l-8.3,4.15ZM1219.15,425.78c-1.39-2.76-2.79-5.53-2.79-8.3,4.15,0,4.15,5.54,2.79,8.3ZM765.71,421.63c-1.03-2.08-2.43-3.95-4.14-5.53,2.76-5.53,5.53-9.68,8.3-13.83h6.91c-.01,12.44-2.79,15.2-11.08,19.35h0ZM1078.13,421.63c-1.37-4.15-2.76-8.3-2.76-11.06,1.39,2.76,4.15,6.91,6.91,11.06h-4.15ZM1397.46,418.87c-4.12-6.91-8.29-12.44-11.05-17.98,2.76-1.37,5.53-1.37,8.29-1.37,2.76,5.53,5.53,11.06,8.31,16.59-2.79,0-4.16,1.37-5.55,2.76h0ZM1129.28,417.48c-3.51-2.41-6.75-5.19-9.68-8.29v-5.54c5.54,0,12.44,9.68,17.98,12.44-2.76.01-5.54.01-8.3,1.39ZM861.09,407.81c-1.37-2.76-2.76-5.53-2.76-6.91,9.68-2.76,11.06-8.3,13.83-15.2-15.2-15.21-40.09,9.68-48.38-17.98,2.76-6.91,5.53-12.44,9.68-17.96-2.76-1.39-5.53-2.76-8.3-2.76v-5.53c5.53-4.15,11.06-6.91,16.59-9.68v8.3c-2.76,1.37-5.53,4.15-6.91,6.91,1.39,0,4.15,1.37,6.91,2.76v5.53c-4.14,0-6.91,1.37-9.68,2.76-1.39,2.76-1.39,6.91-1.39,11.06,12.44,5.53,29.03,4.15,42.85,4.15,1.39,5.53,4.15,12.44,6.91,19.35,5.54-4.15,11.06-6.91,16.59-9.68v8.3c-5.53,1.37-11.06,4.15-16.59,6.91-1.37-1.37-1.37-2.76-1.37-4.15-6.56,3.81-12.6,8.45-17.98,13.8h0ZM1490.1,405.04c-5.55-5.53-8.31-11.06-8.31-17.96h8.31c1.36,4.15,4.12,9.68,6.91,15.2-2.57.04-5.03,1.02-6.91,2.76h0ZM1444.47,398.13c-4.15-2.76-8.31-4.15-11.08-5.53v-6.91c5.53-2.76,12.44-5.53,19.35-8.3,1.39,4.15,2.76,8.3,4.15,13.83-4.14,1.39-8.3,4.15-12.43,6.91ZM1371.19,392.61c-6.89-6.91-12.44-6.91-8.29-16.59,9.68,1.39,9.68,5.54,13.83,9.69-2.76,1.37-4.15,4.14-5.54,6.9ZM1393.33,392.61l-8.31-12.44c9.68-9.69-4.15-17.98-9.68-23.5-8.29,1.37-15.2,2.76-22.11,4.15l-4.15-4.15c20.75-6.91,42.87-13.81,64.98-19.35-7.15,18.34-14.06,36.77-20.73,55.29h0ZM1137.57,389.84v-5.54h2.76v5.54h-2.76ZM794.74,385.69c-9.68,0,1.37-19.36,12.44-19.36v9.68c-4.14,2.78-8.29,5.54-12.44,9.69h0ZM971.68,384.31c-1.37-1.37-2.76-2.76-2.76-4.14,4.15-2.76,8.3-5.54,13.83-8.3-1.03-2.08-2.44-3.96-4.15-5.53-4.15,0-8.29,1.37-12.44,2.76-4.14-15.2-22.11-27.65-27.64-41.48,2.76-1.37,6.91-2.76,11.06-4.14,0-2.76,0-5.54,1.39-6.91-1.39-1.37-2.76-2.76-4.15-2.76-5.53,1.37-11.06,4.14-16.59,6.91,0-8.3,16.59-12.44,23.5-12.44,5.53,12.44,37.33,56.68,33.18,69.13-5.42,1.43-10.57,3.76-15.23,6.89ZM1300.69,381.54c-4.12-2.76-6.91-5.54-9.68-6.91,0-12.44,6.91-12.44,15.23-16.59,6.89-16.59,15.2-33.18,23.49-49.76,5.53,1.37,12.44,4.15,19.35,6.91-5.53-1.37-11.05-2.76-15.2-2.76-2.76,1.39-4.15,2.76-5.53,4.15,0,5.53,8.29,6.91,12.44,8.3,0,1.37,0,2.76,1.36,5.53-9.68,11.06-19.35,22.13-27.64,34.56h-13.83c-1.36,2.76-2.76,5.53-4.12,9.68,2.76,1.37,5.53,2.76,9.68,5.54-2.79-.01-4.16-.01-5.55,1.36h0ZM915.01,374.63c-1.13-3.33-2.52-6.56-4.15-9.68,5.53-2.76,9.68-9.68,17.98-5.53,0,5.53-9.68,11.05-13.83,15.2h0ZM1458.27,367.72c-4.12-5.53-6.89-11.06-9.68-16.59,1.39-1.37,2.79-2.76,4.15-2.76,4.15,4.15,16.59,9.68,12.44,17.98-2.75-.01-5.51-.01-6.91,1.37h0ZM1393.33,363.58l-12.46-8.3v-4.15c6.91-2.76,13.83-4.15,20.75-5.53-2.78,5.53-5.53,11.05-8.29,17.98ZM1422.36,334.54c-4.15-2.76-6.91-5.54-9.68-8.3,0-2.76,0-5.53,1.36-8.3,4.15,1.39,8.31,4.15,13.83,6.91,0,1.37,0,4.14,1.36,6.91-2.55.06-4.99,1.05-6.87,2.78h0ZM1279.96,333.17c-4.15-2.76-8.31-4.15-12.44-5.54v-6.91c8.29,0,15.2,1.37,20.73,6.91-2.76,1.37-5.53,2.76-8.29,5.54ZM988.27,331.78c-1.37-2.76-1.37-5.53-1.37-8.29,4.15-2.76,8.29-4.15,12.44-5.54,0,2.76,0,5.54,1.39,9.68l-12.45,4.15ZM1295.16,324.87c-4.15-2.76-8.29-5.53-11.08-8.3,0-4.15,0-8.3,1.39-12.44-7.22-3.55-14.6-6.78-22.11-9.68l-8.31,12.44c-2.76-1.37-5.53-2.76-8.29-2.76,11.08-9.68,31.79-40.09,48.38-40.09,1.39,19.35,2.76,40.09,4.15,60.83h-4.12ZM865.24,320.72c-1.39-4.15-2.76-6.91-2.76-9.68,6.13-3.12,12.63-5.45,19.35-6.91,0,1.37,0,4.14,1.37,6.91-6.9,2.78-12.44,5.53-17.96,9.68ZM1244.02,320.72c-5.53-2.76-11.08-4.15-15.2-5.53v-6.91c5.53,0,12.44,1.37,19.35,2.76-1.39,2.78-2.79,5.53-4.15,9.68ZM1025.6,317.95c-1.39-2.76-2.76-5.53-2.76-8.3,5.53-1.37,12.44-1.37,19.35-1.37v4.15c-5.53,1.39-11.06,2.76-16.59,5.53ZM989.66,316.57c-34.56-13.83-22.11-56.68,12.44-56.68-5.53,1.39-9.68,2.76-13.83,4.15-23.5,23.5-4.15,40.09,16.59,44.24,2.92-3.1,6.17-5.87,9.68-8.29-1.37-4.15-2.76-6.91-2.76-9.68-2.76-1.39-4.15-2.76-5.53-2.76,0-2.76,0-5.53,1.37-6.91h9.68c1.37,6.91,2.76,13.83,5.53,20.74-9.66,8.27-22.1,12.44-33.16,15.19h0ZM1097.49,313.82l-8.3-4.15c4.15-1.37,8.3-2.76,13.83-4.14v5.53c-2.78-.01-4.15,1.37-5.53,2.76ZM1198.4,309.65c-4.15-2.76-8.31-4.14-11.08-5.53,0-2.76,0-5.54,1.39-6.91,5.53,1.37,12.44,2.76,19.35,5.53.01,4.15-6.9,5.54-9.66,6.91ZM1064.3,308.28v-8.29c5.54-1.39,11.06-1.39,17.98-1.39v5.54c-6.91,1.37-12.44,2.75-17.98,4.14ZM1105.78,304.14c-1.39-4.15-1.39-6.91-1.39-9.68h19.35c-1.37,2.76-2.76,5.53-2.76,8.29-5.53,0-11.05,0-15.2,1.39ZM1150.02,304.14c-4.15,0-4.15-5.54-4.15-9.68h19.35v8.29c-5.53,0-11.05,0-15.2,1.39ZM1043.56,299.99c-4.14-17.98-8.3-35.94-11.06-52.53,15.2-1.37,34.56-11.06,47,1.37,0,4.15,0,8.3,1.37,12.44l-8.29,8.29,16.59,24.89c-11.06,0-31.8-26.26-37.33-15.21,0,5.54,1.37,11.06,2.76,17.98-4.12,0-8.27,1.39-11.05,2.78h0ZM1226.03,299.99c-2.76-1.39-5.53-2.76-6.89-4.15,2.76-16.59,6.89-33.18,11.05-49.76,30.43,2.76,1.39,30.41,1.39,53.92h-5.55ZM1282.72,295.84l-8.31-4.15v-8.3c4.15-2.76,8.31-4.15,12.46-5.53-1.39,5.53-2.78,11.06-4.15,17.98ZM1184.57,293.06c-3.33-1.12-6.57-2.51-9.68-4.15,1.39-15.2,4.15-30.41,6.91-45.61-6.91,0-12.44,0-17.96,1.39,0-2.76,1.36-5.54,2.76-6.91l41.46,4.15v9.68c-4.46-2.2-9.08-4.05-13.83-5.53-2.76,15.2-4.15,30.41-5.53,45.61-1.39,0-2.76,0-4.15,1.37h0ZM1107.17,291.69l-2.76-2.76c6.91-17.96,13.83-35.94,20.74-52.53,11.06,0,29.04,41.46,30.4,53.92h-11.05c-2.76-5.53-5.54-11.06-6.91-15.2-6.91-1.39-13.83-1.39-19.35-1.39-2.76,5.53-4.15,11.06-5.53,16.59-2.78,0-4.16,0-5.54,1.37h0ZM959.25,270.95c-6.91,0-1.37-11.06-1.37-12.44,4.15-1.37,8.29-2.76,13.83-2.76v6.91l-12.45,8.29ZM1050.49,270.95c-1.37-8.3-2.76-15.2-4.15-22.13,6.91,0,15.2,1.37,23.5,2.76,0,13.84-9.68,15.23-19.35,19.36ZM1311.76,269.56c-8.31-2.76-11.08-8.29-13.83-13.81,5.53,1.37,12.44,2.76,19.35,5.53,0,1.37,0,4.15,1.39,6.91-2.76,0-5.55,0-6.91,1.37ZM1122.37,268.19c1.37-5.53,2.76-9.68,4.15-13.81,2.76,4.14,5.53,8.29,8.3,13.81h-12.45ZM1000.72,252.99c-1.39-4.15-1.39-6.91-1.39-9.68,5.53-1.37,12.44-2.76,19.35-4.15,0,1.37,0,4.15,1.39,6.91-6.72,1.45-13.23,3.78-19.35,6.91h0ZM1261.99,251.6c-4.12-2.76-8.29-4.15-12.44-5.53-1.36-2.76-1.36-5.54-1.36-6.91,6.89,0,15.2,1.37,23.49,2.76v9.68h-9.69,0ZM1049.1,240.54c-1.39-2.76-2.76-5.53-2.76-8.29,6.91-1.39,15.2-2.76,23.5-4.15v6.91c-6.91,1.39-13.83,2.76-20.74,5.53ZM1210.83,239.16l-8.29-4.14c-1.39-2.76-1.39-5.54-1.39-6.91,6.91,0,13.83,0,22.11,1.37v8.3c-4.12-.01-8.27-.01-12.44,1.37h0ZM1098.87,233.62c-1.37-4.15-1.37-6.91-1.37-9.69,6.91-1.37,13.83-1.37,20.74-1.37,0,1.37,1.37,4.15,2.76,6.91-8.3,1.39-15.21,2.78-22.13,4.15h0ZM1165.22,233.62c-5.53-2.76-11.05-4.15-16.59-5.53,0-6.91,17.99-4.15,23.5-4.15-2.76,2.78-5.53,5.54-6.91,9.68ZM480.93,324.87c-13.83-22.13-78.79-100.92-78.79-118.89,24.88,0,58.05,26.26,82.94,35.94,1.37-30.41,2.76-59.44,4.15-88.48,12.44,0,64.98,99.53,80.18,117.51,0,6.91-16.59,13.83-22.11,16.59-13.83-20.74-27.65-41.46-41.48-60.82-1.37,15.2-2.76,31.79-2.76,48.38l-37.33-12.44c12.44,19.36,55.29,52.54,15.2,62.22h0ZM1843.98,322.1c-5.53-4.15-9.68-6.91-13.83-9.68,11.08-16.59,22.11-33.18,34.55-49.76,0-5.53,0-11.06,1.39-15.2,6.91-1.37,15.2-2.76,23.5-2.76,1.36,2.76,2.76,6.91,4.12,11.06,6.91,1.37,13.83,2.76,20.75,5.53,0,4.15,0,8.29,1.39,13.83-5.55,5.53-9.68,6.91-17.99,6.91-2.76-4.15-5.53-8.3-8.29-11.06-17.99,0-33.19,40.09-38.7,51.14h-6.9ZM1685,304.14c-8.29-4.15-15.2-8.3-22.11-11.06,0-2.76,0-4.15,1.39-5.53,9.68,0,20.73,1.37,31.79,2.76,15.2-6.91,27.64-19.35,31.79-35.94-12.44-5.54-33.19-13.83-27.66-31.8,8.31-17.96,16.59-35.94,24.9-52.53h22.11c0,24.88-29.03,44.24-29.03,70.5h16.59c15.2-6.91,24.88-38.7,30.4-53.92,12.44,0,27.66-6.91,20.75,13.83-19.35,27.65-37.34,56.68-55.3,85.7-6.91,4.15-13.83,9.68-20.75,15.2-8.27,0-16.55,1.39-24.86,2.78h0ZM1801.11,295.84c-22.11-13.83-31.79-27.65-23.5-58.07,19.38-19.35,29.05-31.8,59.45-27.65,5.53,5.53,11.08,12.44,16.59,19.35-2.76,11.06-5.53,23.5-8.29,35.94-13.83,0-35.94-11.06-47.02-16.59-6.91,6.91-5.53,12.44-6.91,22.13,2.76,2.76,5.55,5.53,8.31,9.68h33.16v5.53c-11.05,2.78-22.13,5.54-31.8,9.69h0ZM591.53,261.28c-29.03-13.83-52.53-33.18-42.85-70.5,23.5-23.5,44.24-19.35,67.74,4.15,0,12.44-26.26,24.88-37.33,29.03-1.37,1.39-1.37,4.15-1.37,6.91,15.2,17.98,38.7,17.98,42.85-9.68h6.91c-.01,26.26-12.45,34.56-35.95,40.09h0ZM1824.63,248.84c-8.29-4.14-15.2-6.91-19.35-15.2,9.68-6.91,16.59-6.91,27.64-9.69,6.9,6.91-.01,22.13-8.29,24.89h0ZM1682.23,235.01c-4.15-2.76-6.91-5.54-9.68-6.91-20.73-2.76-29.03-6.91-42.86-20.74,0-23.5,4.15-35.94,27.66-41.46,9.68,0,19.35,1.37,29.03,2.76,0-4.15,1.36-8.3,2.76-11.06-6.91-6.91-19.35-4.15-27.64-5.53,0-23.5,33.16-8.3,44.23-2.76,1.36,5.53,2.76,11.06,4.12,17.96-8.29,16.59-26.24,38.7-26.24,58.07,1.36,0,2.76,1.39,4.12,2.76-2.75,1.39-4.12,4.15-5.51,6.91ZM656.51,230.86c-17.96-8.3-30.41-42.85-40.09-59.44-5.54,0-9.68,0-13.83,1.37,2.76-13.81,6.91-26.26,11.06-38.7,4.15,5.54,8.3,11.06,13.83,16.59h12.44v6.91c-1.37,0-2.76,1.39-4.15,2.76,8.3,16.59,17.98,34.56,27.65,52.53h19.35c-6.91,11.06-11.06,15.21-26.26,17.98ZM912.24,219.81c-9.68-4.15-17.98-8.3-26.26-12.44,0-2.76,1.37-5.53,2.76-6.91,11.06,0,23.5,1.37,35.94,2.76,22.11-13.81,24.88-24.88,15.2-53.9-11.06,5.53-23.5,4.14-35.94,5.53-33.18-8.29-38.7-40.09-51.14-67.73,0-60.83,26.26-62.2,74.65-66.35,1.37,5.53,2.76,11.06,4.15,17.96-16.59-5.53-38.71-12.44-48.39,8.3,0,35.94-2.76,89.85,44.24,92.63,19.35-19.35-8.3-40.09,0-58.07,5.53-2.76,11.06-4.15,17.96-5.54,9.68,34.56,29.03,87.09,15.21,123.03-15.21,15.19-29.03,17.95-48.39,20.73h0ZM691.07,218.42c-9.4-19.95-19.08-39.76-29.03-59.44-2.76-1.39-5.54-1.39-6.91-1.39,0-5.53,1.37-11.06,2.76-16.59,17.96,0,27.64-13.83,45.61-9.68,12.44,19.35-8.3,17.98-19.35,17.98,0,16.59,17.98,45.61,26.26,59.44-6.91,2.76-13.84,5.53-19.35,9.68h0ZM568.03,217.04c-11.06-27.64-1.37-33.18,20.74-22.11,0,2.76,1.37,6.91,2.76,11.06-8.2,2.84-16.08,6.54-23.5,11.05ZM1657.36,217.04c-17.99-17.96-4.15-34.56,16.59-35.94,8.29,8.3-11.06,30.41-16.59,35.94ZM1285.49,212.89c-13.83-6.91-49.78-16.59-42.87-37.31,4.15-2.76,9.68-4.15,15.23-5.53,0,27.64,34.55,35.94,56.66,30.41,20.73-15.2,23.5-37.33,29.03-59.44-13.83,0-31.79,0-41.46-9.68,0-23.5,1.36-47,2.76-70.5,6.91-2.76,8.29-6.91,19.35-6.91,0,1.37,1.36,4.14,2.76,6.91-2.76,22.13-5.53,44.24-6.91,66.35,5.53,1.37,11.08,2.76,17.99,4.15,17.96-17.98,5.53-44.24,16.59-66.35,4.89-1.71,10.02-2.64,15.2-2.76,1.36,1.39,2.76,2.76,5.53,5.53,0,30.41-9.68,106.44-34.55,131.33-8.31,2.76-16.59,6.91-24.88,11.06-11.08-.03-20.75,1.36-30.43,2.74ZM1606.22,207.36c-6.91-2.76-13.83-5.53-19.35-8.29,6.89-22.13,13.8-42.85,22.11-63.59-6.91,4.15-38.7,29.03-47.02,20.74-4.12-12.44-6.91-24.88-9.68-37.33-6.91,20.74-13.8,42.85-20.73,64.97-15.23-2.76-19.35-4.14-23.5-13.81l8.29-12.44c13.83-35.94,27.66-71.88,42.86-106.44h6.91c5.53,23.5,11.08,47,16.59,71.88,16.59,0,64.98-38.7,77.42-45.61-16.59,42.85-33.19,85.7-48.38,128.56-2.78,0-4.18,0-5.54,1.37ZM753.27,194.92c-8.3-5.53-16.59-9.68-23.5-13.83-20.74-37.33-23.5-73.27,31.8-73.27,26.26,12.44,38.7,33.18,33.18,66.35-3.06,4.42-5.83,9.04-8.29,13.83-11.08,1.39-22.14,4.15-33.19,6.91h0ZM762.95,185.25c-15.2-11.06-42.85-45.61-24.88-63.59h16.59c13.83,13.81,34.56,44.24,16.59,62.2-2.78,0-5.54,0-8.3,1.39ZM1430.65,158.98c-23.5-8.3-1.39-53.92,0-73.27-4.15-1.37-8.29-1.37-11.08-1.37-17.96,17.98-12.44,48.38-23.49,66.35-5.55-1.37-11.08-1.37-15.23-1.37,2.79-26.26,6.91-52.53,11.08-78.8,5.53-2.76,11.08-4.15,17.96-5.53,0,1.37,1.39,2.76,2.79,5.53,33.16,2.76,40.08,2.76,35.93,38.7-4.12,15.2-6.89,31.8-9.68,48.38-2.78,0-5.54,0-8.29,1.39h0ZM1002.1,142.4c-29.03-9.68-34.56-41.46-29.03-69.12,6.74-6.73,14.15-12.75,22.11-17.98,16.59,0,27.65-1.37,41.48,12.44,6.91,23.5,9.68,51.15-8.3,69.13-9.68,1.37-17.96,2.76-26.26,5.53h0ZM1075.36,134.09c-38.7-24.88-5.53-85.7-29.03-120.27,6.91-8.29,9.68-11.06,20.74-11.06,13.81,27.65,9.68,80.18,11.06,111.97,2.76,4.15,6.91,8.3,11.06,13.83-5.54,1.4-9.69,2.78-13.84,5.54h0ZM1126.52,134.09c-45.63-20.74-51.15-76.03,2.76-88.47,8.3,0,16.59,0,26.26,1.37,0-13.83,0-23.5-5.53-35.94,5.53-11.06,8.29-8.3,17.96-11.06,17.99,17.98,8.31,89.85,8.31,116.13,2.76,1.37,5.53,4.15,9.68,6.91-1.39,1.37-2.76,2.76-2.76,5.53-6.91-1.37-13.83-2.76-20.75-2.76-12.44,2.76-24.89,5.53-35.94,8.29h0ZM1246.79,134.09c-6.91-6.91-24.88-4.14-34.55-2.76-5.55-4.15-9.68-8.3-13.83-12.44-2.76-22.11-5.53-44.24-6.91-66.35,5.53-5.53,12.44-4.15,19.35-4.15,11.08,15.21,4.15,51.15,4.15,69.13,1.36,0,2.76,1.37,5.53,2.76l8.31-4.15v-62.2c6.89-2.76,8.29-5.54,17.96-5.54,1.39,4.15,4.15,8.3,6.91,12.44l-4.15,58.07c23.5,0,31.79-45.61,13.83-53.92v-8.3c4.15-1.37,9.68-2.76,15.2-4.15,2.76,5.53,6.91,11.06,11.08,17.98-.01,30.43-13.85,56.68-42.88,63.59h0ZM1009.01,132.72c-23.5-15.2-23.5-33.18-19.35-60.83,15.2-15.2,26.26-4.15,33.18,11.06,1.37,17.98,6.91,41.46-13.83,49.76ZM1134.82,123.04c-24.89-12.44-22.13-22.11-22.13-49.77,8.29-16.59,17.96-16.59,35.94-16.59,9.68,9.68,6.91,42.85,6.91,58.07-6.93,2.75-13.83,5.53-20.73,8.29Z"/>
  <path class="st0" d="M495.32,1075.75c0,26.19,20.95,45.8,45.9,45.8,25.08.14,45.52-20.07,45.67-45.15,0-.22,0-.43,0-.65,0-25.67-20.82-45.29-45.67-45.29-24.95-.01-45.9,19.61-45.9,45.29ZM503.61,1075.75c0-21.79,16.3-38.6,37.61-38.6s37.38,16.81,37.38,38.6-16.3,39.1-37.38,39.1c-21.31-.01-37.61-16.82-37.61-39.1ZM523.45,1102.52h8.3v-22.88h8.75l14.47,22.88h8.9l-15.23-23.5c7.94-.86,14.02-4.82,14.02-14.47,0-10.22-5.98-15.23-18.65-15.23h-20.57v53.2h0ZM531.75,1056.02h10.95c5.59,0,11.69,1.1,11.69,8.15,0,8.42-6.71,8.78-14.02,8.78h-8.61v-16.93h0ZM197.75,585.56h-52.15v14.02h17.94v56.69h16.48v-56.69h17.73v-14.02ZM230.13,628.33h12.06l10.82,27.94h18.35l-13.09-31.23c7.63-2.78,12.27-10.21,12.27-18.24,0-6.91-3.19-13.81-8.96-17.63-5.46-3.51-11.85-3.61-18.13-3.61h-29.79v70.71h16.48v-27.95h-.01,0ZM230.13,598.13h8.65c3.1,0,7.83-.42,10.62,1.35,2.37,1.44,4.02,4.42,4.02,7.21,0,3.09-1.44,6.39-4.12,8.04-2.98,1.75-6.71,1.44-10.1,1.44h-9.08v-18.04h.01ZM324.45,585.56h-19.18l-22.67,70.71h14.53l4.44-14.54h22.88l4.33,14.54h17.83l-22.15-70.71ZM305.58,628.75l7.54-24.85,7.52,24.85h-15.06ZM361.16,585.56v70.71h23.29c10,0,18.65-2.06,25.67-9.79,6.28-7.12,9.17-16.29,9.17-25.77,0-10.22-3.29-20-10.92-27.22-7.73-7.31-16.48-7.94-26.7-7.94h-20.51s0,.01,0,.01ZM377.66,598.54h5.67c5.88,0,10.1.73,13.92,5.68,3.41,4.44,5.06,10.41,5.06,15.98,0,5.27-1.13,10.73-3.92,15.25-3.81,6.19-8.25,7.52-15.15,7.52h-5.58v-44.43h0ZM486.91,599.27v-13.71h-50.5v70.71h50.5v-13.71h-34.01v-15.67h26.8v-13.29h-26.8v-14.33h34.01ZM1840.37,598.65h.42v57.62h16.48v-70.71h-25.86l-13,42.36-12.36-42.36h-25.86v70.71h13.9v-57.62h.21l17.22,57.62h11.32l17.52-57.62ZM1913.89,585.56h-19.18l-22.67,70.71h14.51l4.44-14.54h22.9l4.33,14.54h17.83l-22.17-70.71ZM1895.01,628.75l7.52-24.85,7.52,24.85h-15.04ZM1967.59,628.33h12.06l10.84,27.94h18.34l-13.1-31.23c7.63-2.78,12.26-10.21,12.26-18.24,0-6.91-3.19-13.81-8.96-17.63-5.45-3.51-11.85-3.61-18.13-3.61h-29.79v70.71h16.48v-27.95h0ZM1967.59,598.13h8.66c3.09,0,7.83-.42,10.61,1.35,2.46,1.59,3.97,4.29,4.03,7.21,0,3.09-1.44,6.39-4.12,8.04-2.98,1.75-6.69,1.44-10.1,1.44h-9.07v-18.04h-.01,0ZM2042.25,585.56h-16.08v70.71h16.08v-16.29l9.97-14.32,14.03,30.61h18.25l-21.26-45.46,17.02-25.25h-15.87l-22.14,33.29v-33.29h0Z"/>
</svg>